<?xml version="1.0" standalone="no"?>
<!DOCTYPE svg PUBLIC "-//W3C//DTD SVG 20010904//EN"
 "http://www.w3.org/TR/2001/REC-SVG-20010904/DTD/svg10.dtd">
<svg version="1.0" xmlns="http://www.w3.org/2000/svg"
 width="60px" height="60px" viewBox="0 0 700.000000 700.000000"
 preserveAspectRatio="xMidYMid meet">

<g transform="translate(0.000000,700.000000) scale(0.100000,-0.100000)"
fill="#000000" stroke="none">
<path d="M3265 5789 c-297 -4 -1028 -12 -1625 -18 -602 -7 -1107 -16 -1134
-22 -61 -12 -101 -40 -125 -87 -16 -33 -19 -68 -22 -297 l-4 -260 1315 3 c723
1 1457 5 1630 7 l315 5 71 61 c376 320 859 412 1319 249 155 -55 271 -123 410
-240 l81 -68 64 2 c36 2 150 3 253 4 l188 2 -53 78 c-29 42 -100 125 -158 183
-213 214 -470 346 -770 395 -101 17 -494 18 -1755 3z m-1421 -139 c38 -14 59
-52 47 -83 -8 -21 -24 -30 -81 -47 -38 -11 -70 -24 -70 -28 0 -4 34 -6 75 -4
l75 4 0 -26 0 -26 -116 0 -116 0 7 28 c10 41 32 60 97 83 42 16 58 27 58 40 0
23 -51 27 -69 5 -13 -16 -81 -27 -81 -13 0 55 102 95 174 67z m155 -52 c12
-35 25 -70 28 -78 3 -8 7 -10 9 -5 2 6 15 39 27 75 23 63 25 65 62 68 43 4 45
16 -17 -125 l-41 -94 -36 3 c-34 3 -36 5 -78 102 -24 55 -43 103 -43 108 0 4
15 8 34 8 32 0 34 -3 55 -62z m-1147 15 l3 -38 50 0 50 0 3 38 c3 35 5 37 38
37 l34 0 0 -94 c0 -114 -4 -126 -41 -126 -26 0 -28 3 -31 48 l-3 47 -50 0 -50
0 -3 -48 c-3 -48 -4 -48 -35 -45 -23 2 -32 8 -31 21 0 9 1 58 2 107 l2 90 29
0 c27 0 30 -3 33 -37z m408 -28 c0 -51 3 -65 15 -65 9 0 15 -9 15 -25 0 -15
-6 -25 -14 -25 -8 0 -16 -7 -20 -15 -3 -8 -17 -15 -31 -15 -16 0 -25 6 -25 15
0 12 -14 15 -70 15 -68 0 -70 1 -70 24 0 16 21 49 58 90 53 62 60 66 100 66
l42 0 0 -65z m148 -152 c-2 -137 -7 -218 -13 -218 -6 0 -11 81 -13 218 -2 190
0 217 13 217 13 0 15 -27 13 -217z m222 112 l0 -105 -35 0 -35 0 0 66 0 65
-27 -3 c-23 -2 -29 1 -31 20 -3 18 1 22 21 22 13 0 32 9 42 20 10 11 29 20 42
20 23 0 23 -2 23 -105z m1319 -195 c34 -17 79 -32 114 -35 62 -7 101 -32 95
-63 -5 -28 -32 -24 -50 8 -13 23 -24 30 -48 30 -24 0 -35 -7 -51 -35 l-21 -35
-117 0 -117 0 -11 30 c-6 16 -18 33 -27 36 -27 10 -62 -4 -76 -31 -11 -20 -18
-23 -39 -18 -35 8 -35 8 -25 44 8 27 17 35 59 49 28 9 64 24 80 33 20 11 55
16 104 17 63 0 82 -4 130 -30z m-1351 -38 c3 -8 -6 -12 -29 -10 -17 2 -34 -2
-36 -9 -3 -7 3 -10 15 -6 25 6 62 -13 62 -32 0 -20 -35 -37 -68 -33 -16 2 -32
13 -41 29 -13 24 -13 29 3 53 14 23 23 27 53 24 20 -2 38 -9 41 -16z m124 1
c22 -20 23 -51 1 -75 -32 -36 -103 -12 -103 35 0 49 64 75 102 40z m65 -38
c-11 -30 -24 -55 -28 -55 -13 0 -11 9 8 63 9 26 22 47 29 47 8 0 5 -17 -9 -55z
m143 45 c0 -5 -18 -10 -40 -10 -51 0 -53 -18 -2 -22 29 -2 38 -8 40 -25 4 -29
-30 -47 -74 -38 -46 8 -44 27 2 23 23 -2 39 2 41 10 3 8 -8 12 -36 12 -43 0
-44 1 -35 38 6 19 13 22 55 22 27 0 49 -4 49 -10z m125 0 c-3 -5 -22 -10 -41
-10 -46 0 -44 -18 4 -22 29 -2 38 -8 40 -25 4 -29 -30 -47 -74 -38 -19 3 -34
11 -34 17 0 6 11 8 27 5 30 -6 53 1 53 14 0 5 -18 9 -40 9 -42 0 -43 1 -34 38
6 19 13 22 56 22 30 0 47 -4 43 -10z m60 -22 l7 -33 11 33 c12 40 41 40 45 -1
4 -34 22 -36 22 -2 0 22 24 45 35 33 2 -2 -3 -27 -11 -56 -12 -40 -20 -52 -32
-50 -10 2 -19 14 -20 28 -6 41 -19 44 -26 6 -8 -41 -32 -48 -45 -13 -20 52
-23 87 -8 87 8 0 18 -14 22 -32z m605 -42 c28 -35 -11 -93 -47 -70 -36 22 -23
84 17 84 10 0 23 -7 30 -14z m368 2 c34 -34 -6 -90 -48 -68 -35 19 -20 80 20
80 9 0 21 -5 28 -12z"/>
<path d="M1162 5561 c-18 -22 -32 -41 -32 -43 0 -2 16 -2 35 0 33 4 35 6 35
43 0 21 -1 39 -3 39 -2 0 -18 -18 -35 -39z"/>
<path d="M2723 5345 l-28 -24 58 -1 c54 0 57 1 57 25 0 21 -5 25 -29 25 -18 0
-42 -10 -58 -25z"/>
<path d="M2834 5355 c-3 -8 -3 -19 1 -25 7 -12 115 -14 115 -2 0 14 -57 42
-84 42 -15 0 -29 -7 -32 -15z"/>
<path d="M1537 5263 c-13 -12 -7 -23 13 -23 11 0 20 7 20 15 0 15 -21 21 -33
8z"/>
<path d="M1662 5298 c-16 -16 -15 -33 4 -49 14 -11 18 -10 30 5 9 13 10 24 3
37 -11 22 -20 24 -37 7z"/>
<path d="M2670 5231 c0 -26 17 -36 35 -21 18 15 8 40 -16 40 -12 0 -19 -7 -19
-19z"/>
<path d="M3042 5228 c2 -13 10 -23 18 -23 8 0 16 10 18 23 3 17 -2 22 -18 22
-16 0 -21 -5 -18 -22z"/>
<path d="M3548 5064 c-3 -3 -129 -5 -279 -4 -150 0 -271 -2 -268 -4 3 -3 121
-6 262 -6 141 -1 257 -3 257 -5 0 -3 -25 -40 -56 -82 -83 -116 -204 -377 -204
-441 0 -8 -6 -12 -15 -9 -8 4 -17 2 -20 -3 -4 -6 -2 -10 4 -10 5 0 16 -2 24
-6 10 -4 19 12 32 58 39 142 128 316 226 444 28 36 49 67 47 70 -3 2 -7 1 -10
-2z"/>
<path d="M5562 5065 c3 -3 107 -6 231 -6 l226 0 24 -42 c57 -97 109 -268 145
-477 9 -50 10 -52 11 -17 3 97 -64 340 -131 472 l-35 70 -238 3 c-131 1 -236
0 -233 -3z"/>
<path d="M2868 5053 c17 -2 47 -2 65 0 17 2 3 4 -33 4 -36 0 -50 -2 -32 -4z"/>
<path d="M1022 5043 c274 -2 722 -2 995 0 274 1 50 2 -497 2 -547 0 -771 -1
-498 -2z"/>
<path d="M2608 5043 c12 -2 30 -2 40 0 9 3 -1 5 -23 4 -22 0 -30 -2 -17 -4z"/>
<path d="M844 4961 c-23 -10 -44 -26 -47 -35 -4 -10 -11 -15 -16 -12 -5 3 -9
0 -8 -7 1 -48 -4 -49 -33 -9 -26 37 -75 73 -97 72 -4 -1 9 -10 30 -21 118 -62
123 -271 8 -342 -14 -9 -21 -17 -15 -17 19 0 64 40 81 73 l16 32 8 -27 c20
-74 131 -113 208 -73 16 8 32 11 36 7 5 -4 5 -1 1 6 -4 6 -3 12 2 12 5 0 17
15 26 33 l16 32 -2 -37 c-1 -21 1 -40 5 -44 4 -4 6 73 5 172 -2 168 -2 172 -8
69 -3 -60 -7 -104 -8 -97 -1 8 -17 28 -34 45 -18 17 -26 28 -17 25 9 -4 21 -3
28 2 7 4 -20 10 -60 12 -52 4 -76 10 -85 22 -8 11 -14 13 -19 6 -7 -12 52 -40
84 -40 29 0 88 -56 96 -89 15 -71 -51 -141 -135 -141 -76 0 -125 40 -136 111
l-6 35 74 -7 c95 -9 113 -16 96 -37 -11 -13 -10 -14 2 -10 8 2 16 12 18 20 2
11 -14 20 -56 32 -33 9 -72 26 -86 37 -14 11 -26 16 -26 10 0 -6 12 -17 28
-25 l27 -15 -31 -1 -31 0 -1 75 c-1 69 1 78 26 106 17 19 46 35 77 44 32 8 41
13 25 14 -14 0 -43 -8 -66 -18z"/>
<path d="M1950 4970 c0 -5 7 -10 16 -10 8 0 12 5 9 10 -3 6 -10 10 -16 10 -5
0 -9 -4 -9 -10z"/>
<path d="M550 4960 c-8 -5 -10 -10 -5 -10 6 0 17 5 25 10 8 5 11 10 5 10 -5 0
-17 -5 -25 -10z"/>
<path d="M975 4952 c40 -25 56 -46 65 -85 6 -24 8 -26 9 -9 2 35 -26 80 -59
97 -41 21 -51 19 -15 -3z"/>
<path d="M1123 4963 c26 -2 68 -2 95 0 26 2 4 3 -48 3 -52 0 -74 -1 -47 -3z"/>
<path d="M1488 4963 c6 -2 18 -2 25 0 6 3 1 5 -13 5 -14 0 -19 -2 -12 -5z"/>
<path d="M1666 4962 c-8 -13 -9 -202 -2 -210 4 -4 7 -2 6 3 -1 6 -2 54 -1 107
l1 97 48 4 47 3 -47 2 c-26 1 -49 -2 -52 -6z"/>
<path d="M1890 4945 c-7 -13 -18 -22 -23 -18 -6 3 -7 1 -3 -6 8 -13 -19 -61
-34 -61 -5 0 -21 21 -34 48 -14 26 -25 44 -26 40 0 -12 53 -118 60 -118 3 0
23 29 44 64 20 36 45 67 54 69 13 4 12 5 -4 6 -12 1 -26 -9 -34 -24z"/>
<path d="M1292 4940 c56 -43 64 -147 15 -198 l-24 -27 23 -50 c13 -27 24 -48
24 -45 0 3 25 74 55 159 30 85 55 159 55 164 0 24 -15 -9 -44 -98 -24 -73 -35
-93 -43 -83 -6 8 -8 35 -4 70 4 35 3 54 -3 51 -5 -4 -7 3 -3 16 3 13 3 21 0
18 -3 -3 -16 5 -30 19 -13 13 -29 24 -35 24 -6 0 1 -9 14 -20z m63 -190 c4 -6
-1 -31 -11 -56 -17 -45 -18 -45 -30 -22 -18 31 -17 44 3 68 19 22 29 25 38 10z"/>
<path d="M2004 4780 c0 -102 2 -143 3 -92 2 50 2 134 0 185 -1 50 -3 9 -3 -93z"/>
<path d="M502 4934 c-56 -39 -82 -159 -54 -245 13 -37 66 -99 86 -99 6 0 -2
10 -17 21 -85 64 -94 225 -16 305 36 37 36 43 1 18z"/>
<path d="M1550 4949 c0 -3 25 -78 55 -166 30 -88 55 -165 55 -171 0 -6 -19
-13 -42 -15 -24 -2 0 -3 52 -3 52 0 74 1 48 3 -53 4 -53 6 -49 91 2 39 -4 47
-31 43 -4 0 -21 43 -38 96 -28 87 -49 138 -50 122z m110 -259 c0 -13 -1 -13
-10 0 -5 8 -10 22 -10 30 0 13 1 13 10 0 5 -8 10 -22 10 -30z"/>
<path d="M890 4870 c0 -5 7 -7 15 -4 8 4 15 8 15 10 0 2 -7 4 -15 4 -8 0 -15
-4 -15 -10z"/>
<path d="M4456 4850 c-8 -20 -34 -49 -60 -67 -25 -18 -57 -50 -71 -72 l-25
-41 0 -293 c0 -240 3 -303 16 -347 20 -68 29 -234 16 -283 -7 -24 -6 -60 1
-112 14 -98 8 -109 -66 -113 -60 -3 -59 -2 -72 -74 l-6 -38 38 0 c21 0 48 -3
61 -6 13 -4 22 -2 22 5 0 6 -12 11 -27 11 -21 0 -24 3 -15 12 7 7 12 17 12 22
0 6 -5 5 -12 -2 -15 -15 -48 3 -48 27 0 15 11 20 59 25 33 4 63 12 68 19 4 7
8 109 8 227 -1 175 -4 223 -17 257 -13 33 -17 81 -18 225 -2 297 -1 393 3 388
3 -3 7 -55 9 -117 5 -104 7 -115 33 -149 29 -38 84 -68 145 -78 19 -3 28 -3
20 0 -21 9 -50 35 -50 46 0 5 30 7 68 4 59 -4 62 -4 26 5 l-41 10 -7 137 c-4
75 -11 141 -17 147 -5 5 -9 53 -9 106 0 65 -5 106 -15 125 l-14 28 -15 -34z
m33 -135 c1 -101 -16 -115 -21 -17 -4 72 0 102 12 102 5 0 9 -38 9 -85z m-8
-234 c1 -45 -1 -85 -5 -88 -3 -4 -6 36 -6 87 0 114 9 116 11 1z"/>
<path d="M608 4860 c19 -4 38 -12 44 -18 13 -13 21 -95 8 -87 -6 3 -7 -1 -4
-10 8 -21 -24 -55 -52 -55 -12 0 -32 12 -43 26 -12 15 -21 22 -21 15 0 -18 39
-51 61 -51 34 0 57 18 69 56 23 70 -8 135 -64 133 l-31 -1 33 -8z"/>
<path d="M940 4855 c7 -9 15 -13 17 -11 7 7 -7 26 -19 26 -6 0 -6 -6 2 -15z"/>
<path d="M1150 4830 c0 -33 3 -38 17 -33 11 4 12 8 5 11 -7 2 -12 15 -12 28 0
22 4 24 38 21 33 -2 37 -6 37 -30 -1 -31 10 -36 18 -8 9 34 -11 51 -58 51
l-45 0 0 -40z"/>
<path d="M552 4848 c-15 -15 -15 -35 0 -44 7 -4 8 -3 4 4 -4 6 -2 21 4 32 12
23 10 26 -8 8z"/>
<path d="M1479 4799 l-16 -49 33 0 33 0 -16 48 c-9 26 -16 48 -17 49 -1 0 -8
-21 -17 -48z m30 -31 c1 -5 -6 -8 -15 -8 -11 0 -14 5 -10 16 3 9 6 21 7 27 0
12 17 -20 18 -35z"/>
<path d="M4884 4305 c3 -515 5 -557 25 -655 17 -85 21 -137 20 -278 -1 -95 1
-176 4 -179 4 -3 30 9 58 28 28 18 87 47 131 65 54 22 73 33 59 37 -14 3 -20
17 -25 53 -8 67 -9 75 -7 109 1 17 -1 68 -3 115 -3 47 -6 241 -8 433 -1 194
-6 347 -11 347 -5 0 -6 11 -3 25 4 16 0 39 -10 60 -9 19 -13 39 -9 44 3 6 2
11 -3 11 -5 0 -12 18 -16 40 -7 43 -39 104 -49 94 -3 -4 -12 6 -19 22 -14 33
-64 84 -82 84 -23 0 -39 19 -47 56 -4 22 -6 -208 -5 -511z"/>
<path d="M1198 4803 c7 -3 16 -2 19 1 4 3 -2 6 -13 5 -11 0 -14 -3 -6 -6z"/>
<path d="M530 4777 c0 -15 4 -27 9 -27 6 0 8 10 6 21 -6 33 -15 36 -15 6z"/>
<path d="M1872 4717 c-30 -56 -25 -57 13 -2 12 18 13 14 12 -37 0 -38 -4 -55
-11 -51 -6 4 -4 -2 4 -12 14 -17 15 -15 18 28 2 26 2 67 0 92 l-3 44 -33 -62z"/>
<path d="M1762 4690 c1 -82 2 -83 7 -25 l6 60 22 -35 c32 -50 28 -33 -7 31
l-30 54 2 -85z"/>
<path d="M864 4707 c3 -10 6 -21 6 -23 0 -2 12 -3 28 -3 20 1 22 3 7 6 -11 3
-26 13 -33 22 -12 15 -13 14 -8 -2z"/>
<path d="M1150 4660 c0 -27 4 -50 8 -50 4 0 6 16 4 36 -4 29 -2 35 9 28 12 -7
12 -5 0 9 -11 15 -11 17 1 17 8 0 25 -24 39 -52 l24 -53 90 -1 90 -1 -89 6
-88 6 -22 52 c-17 42 -26 53 -43 53 -21 0 -23 -5 -23 -50z"/>
<path d="M1427 4638 c-4 -12 -4 -24 -1 -27 3 -3 7 5 11 17 5 19 12 22 58 22
46 0 55 -3 60 -21 9 -27 16 -20 8 9 -5 20 -12 22 -68 22 -56 0 -63 -2 -68 -22z"/>
<path d="M1098 4593 c12 -2 30 -2 40 0 9 3 -1 5 -23 4 -22 0 -30 -2 -17 -4z"/>
<path d="M1938 4593 c12 -2 30 -2 40 0 9 3 -1 5 -23 4 -22 0 -30 -2 -17 -4z"/>
<path d="M443 4513 c15 -2 37 -2 50 0 12 2 0 4 -28 4 -27 0 -38 -2 -22 -4z"/>
<path d="M578 4513 c7 -3 16 -2 19 1 4 3 -2 6 -13 5 -11 0 -14 -3 -6 -6z"/>
<path d="M1208 4503 c7 -3 16 -2 19 1 4 3 -2 6 -13 5 -11 0 -14 -3 -6 -6z"/>
<path d="M1278 4503 c6 -2 18 -2 25 0 6 3 1 5 -13 5 -14 0 -19 -2 -12 -5z"/>
<path d="M1338 4503 c7 -3 16 -2 19 1 4 3 -2 6 -13 5 -11 0 -14 -3 -6 -6z"/>
<path d="M1418 4503 c7 -3 16 -2 19 1 4 3 -2 6 -13 5 -11 0 -14 -3 -6 -6z"/>
<path d="M1897 4503 c189 -2 497 -2 686 0 188 1 34 2 -343 2 -377 0 -531 -1
-343 -2z"/>
<path d="M2998 4503 c39 -2 105 -2 145 0 39 1 7 3 -73 3 -80 0 -112 -2 -72 -3z"/>
<path d="M1799 4443 l-1446 -3 -6 -632 c-4 -347 -7 -745 -7 -883 0 -244 1
-253 20 -258 25 -7 26 -37 1 -44 -17 -4 -20 -18 -26 -116 -3 -62 -5 -164 -3
-227 3 -111 4 -115 26 -118 34 -5 31 -58 -4 -74 l-26 -12 5 -256 c5 -271 17
-355 77 -530 166 -486 605 -863 1082 -929 42 -6 230 -17 419 -26 599 -27 996
-44 1249 -55 363 -15 1766 -79 1980 -90 708 -35 907 -43 935 -34 27 8 25 9
-27 12 -44 2 -58 7 -58 18 0 13 14 15 83 13 45 -2 89 1 96 5 7 5 22 28 32 52
19 41 19 86 17 1531 -2 818 -4 1750 -6 2071 l-2 582 -171 0 -172 0 7 -42 c39
-244 24 -465 -46 -678 -35 -109 -103 -249 -159 -332 -22 -32 -39 -61 -39 -64
0 -4 -12 -18 -27 -32 -26 -24 -26 -26 -9 -36 231 -136 356 -341 356 -586 0
-276 -184 -517 -446 -585 -65 -17 -241 -20 -292 -6 -27 8 -36 7 -51 -8 -39
-39 -35 -159 10 -275 10 -27 17 -52 15 -54 -5 -5 -43 96 -57 153 -6 24 -18 50
-27 57 -13 11 -14 10 -7 -12 5 -14 9 -35 11 -48 2 -18 -1 -21 -11 -12 -9 8
-15 3 -25 -20 -12 -29 -30 -41 -30 -20 0 6 -4 10 -10 10 -5 0 -7 -6 -4 -14 3
-8 -1 -20 -9 -27 -10 -9 -12 -24 -7 -51 6 -30 4 -38 -7 -38 -10 0 -13 -6 -9
-16 3 -8 2 -12 -4 -9 -6 3 -10 -4 -10 -17 0 -17 -3 -19 -9 -9 -6 9 -11 10 -15
2 -15 -24 -33 -8 -65 57 -19 37 -36 62 -38 56 -2 -6 12 -55 31 -110 51 -147
50 -141 36 -124 -9 13 -11 12 -7 -5 2 -11 9 -19 15 -17 7 1 12 0 12 -3 0 -2 9
-28 20 -57 l20 -53 -23 25 c-12 14 -40 38 -62 55 l-40 30 22 -30 c13 -17 31
-41 42 -55 12 -14 21 -29 21 -34 0 -18 -58 8 -105 47 -27 23 -46 36 -41 29 14
-23 -14 -12 -66 28 -57 43 -168 104 -168 92 0 -4 -5 0 -11 8 -6 8 -12 11 -15
5 -4 -11 -194 -12 -212 -1 -14 9 -92 -2 -108 -15 -8 -7 -14 -7 -19 1 -4 7 -16
2 -32 -15 -14 -14 -29 -25 -33 -25 -7 0 -20 -31 -24 -55 0 -5 -8 -10 -16 -10
-8 0 -18 -4 -22 -10 -5 -6 -8 -5 -8 3 0 22 -2 27 -19 52 -9 14 -23 38 -31 53
-22 45 -106 127 -147 144 -21 8 -41 20 -45 27 -6 8 -8 7 -8 -1 0 -7 -4 -13
-10 -13 -5 0 -10 7 -10 16 0 8 -4 12 -10 9 -5 -3 -10 1 -10 10 0 8 -7 18 -15
21 -8 4 -15 12 -15 20 0 8 -7 14 -16 14 -9 0 -18 9 -21 20 -5 19 -19 25 -55
22 -27 -3 -21 15 7 22 20 5 24 10 17 23 -13 22 -3 53 17 54 11 0 12 2 3 6 -10
4 -10 8 -1 19 9 11 6 14 -19 14 -36 0 -55 20 -20 21 14 0 17 3 8 6 -8 2 -24 8
-35 13 -11 5 -27 10 -35 13 -8 2 8 7 37 11 37 6 56 14 66 29 8 12 30 38 49 57
18 19 44 50 56 68 13 17 28 32 34 32 17 0 78 64 78 82 0 10 5 18 11 18 6 0 8
8 4 19 -7 24 18 44 56 44 16 0 29 5 29 10 0 6 9 2 19 -7 18 -17 20 -16 42 14
13 17 36 37 52 45 27 13 28 13 22 -3 -12 -32 -18 -77 -9 -69 5 5 9 12 10 15 3
22 18 69 27 80 5 6 18 12 29 12 11 0 16 4 12 11 -4 8 0 9 15 4 12 -4 21 -2 21
4 0 6 5 11 12 11 6 0 20 7 30 17 10 9 18 12 18 7 0 -5 -29 -28 -65 -52 -36
-23 -65 -46 -65 -52 0 -5 6 -7 14 -4 7 3 16 -2 20 -11 4 -11 13 -14 25 -10 11
3 36 -1 56 -10 21 -8 57 -15 80 -15 23 0 67 -5 96 -10 30 -6 68 -13 84 -16 17
-3 55 -12 85 -20 30 -9 65 -17 77 -19 12 -2 32 -10 45 -19 12 -9 29 -16 38
-16 8 0 24 -11 34 -25 35 -47 36 -25 1 24 -78 109 -115 228 -115 374 l0 98
-102 -4 c-57 -2 -107 -6 -113 -7 -40 -13 -285 36 -385 77 -86 35 -93 43 -38
43 81 0 139 11 128 25 -5 7 -11 34 -13 61 -2 49 -2 49 38 62 47 16 196 12 217
-6 14 -11 16 -80 3 -121 -4 -12 -2 -21 4 -21 6 0 11 -7 11 -15 0 -8 5 -25 11
-39 28 -62 206 -56 238 8 9 19 10 18 6 -9 -4 -23 -3 -25 3 -10 16 35 23 77 13
71 -13 -9 -21 19 -21 78 0 63 23 92 65 82 14 -4 25 -11 25 -18 0 -6 9 -3 20 7
29 26 25 35 -17 36 -21 0 -72 6 -113 13 l-75 12 75 18 c41 10 80 23 85 28 7 6
7 9 0 8 -27 -6 -66 1 -60 10 4 6 11 8 16 5 10 -6 24 22 33 68 5 18 13 27 26
27 11 0 20 5 20 11 0 7 -12 10 -29 7 -17 -2 -28 -1 -25 4 3 4 12 8 20 8 8 0
14 5 14 10 0 17 -29 11 -50 -10 -11 -11 -22 -20 -25 -20 -9 0 -5 105 5 120 8
13 10 12 10 -3 0 -14 8 -17 44 -15 36 1 46 5 50 22 6 25 4 28 -18 20 -14 -5
-15 -9 -4 -15 9 -6 4 -9 -14 -9 -16 0 -29 5 -29 10 -1 6 -2 16 -3 23 -1 6 -12
12 -24 11 -18 -1 -22 4 -19 18 3 11 -2 22 -13 28 -25 14 -37 13 -22 -2 21 -21
13 -32 -9 -12 -13 12 -23 14 -27 8 -4 -6 -24 -14 -44 -17 -29 -4 -40 -2 -47
11 -9 15 -10 15 -16 2 -5 -13 -17 -15 -73 -9 -37 4 -72 3 -78 -2 -6 -5 -14 -6
-18 -2 -4 4 -9 -3 -13 -15 -6 -24 -18 -28 -28 -12 -5 8 -11 7 -21 -1 -18 -15
-18 -30 0 -23 15 6 28 -63 19 -106 -4 -23 -10 -26 -39 -26 -39 1 -41 4 -16 23
13 11 8 10 -22 -2 -47 -18 -46 -18 -46 0 0 8 -4 15 -9 15 -16 0 -22 -35 -12
-61 7 -17 10 -19 10 -6 1 20 17 23 24 5 4 -10 8 -9 17 2 9 12 10 7 5 -22 -4
-24 -2 -38 5 -38 5 0 10 5 10 10 0 6 7 10 15 10 8 0 15 5 15 10 0 14 37 13 46
-1 8 -13 -16 -31 -32 -25 -7 3 -10 -3 -7 -14 3 -10 11 -16 18 -14 7 3 16 1 20
-5 16 -27 27 -9 22 34 -3 32 -1 45 7 42 6 -2 11 -21 11 -43 0 -31 4 -40 20
-42 15 -2 20 3 20 23 0 14 -3 25 -7 25 -12 0 -9 43 5 61 7 9 26 21 42 27 l30
10 -42 1 c-24 1 -43 -4 -43 -10 0 -5 -4 -7 -10 -4 -5 3 -10 -1 -10 -9 0 -9 -4
-16 -10 -16 -12 0 -11 -4 -14 81 l-2 65 34 1 35 1 -29 -19 -29 -19 83 0 82 0
0 -33 c0 -42 -19 -68 -51 -70 -21 -2 -24 -6 -21 -24 5 -25 31 -30 50 -11 9 9
12 8 12 -4 0 -9 2 -23 5 -30 4 -11 -2 -13 -28 -10 -28 3 -35 0 -40 -18 -3 -12
-10 -19 -15 -16 -5 3 -15 -1 -22 -9 -10 -12 -9 -15 5 -15 9 0 42 -8 73 -17
l57 -17 -45 -9 c-47 -11 -430 -14 -490 -5 -33 5 -54 24 -28 26 47 3 148 26
148 34 0 5 -55 7 -122 6 l-123 -3 -3 -42 -3 -42 43 -3 43 -3 3 -77 c2 -43 1
-78 -2 -78 -13 0 -140 80 -206 130 -96 73 -236 220 -302 317 -95 142 -179 344
-213 514 -30 150 -29 424 1 537 4 12 2 21 -2 20 -5 -2 -660 -4 -1455 -5z
m-1272 -169 l38 -66 3 66 c3 58 5 66 22 66 19 0 20 -7 20 -101 l0 -100 -26 3
c-21 2 -33 16 -60 67 l-34 64 0 -61 c0 -51 -3 -63 -20 -72 -19 -10 -20 -8 -20
95 0 97 2 105 19 105 13 0 31 -21 58 -66z m159 50 c-3 -9 -6 -53 -6 -99 0 -74
-2 -83 -20 -88 -19 -5 -20 0 -20 99 l0 104 26 0 c20 0 25 -4 20 -16z m174 -6
c11 -12 20 -28 20 -35 0 -18 -37 -16 -44 2 -16 42 -86 -1 -86 -52 0 -25 32
-63 53 -63 34 1 56 44 22 45 -11 0 -20 7 -20 15 0 10 13 16 41 18 l41 3 -5
-53 c-4 -50 -22 -94 -22 -55 0 16 -2 16 -23 2 -85 -55 -170 83 -101 164 33 39
92 43 124 9z m100 -17 c0 -39 0 -39 38 -38 35 2 37 4 40 40 3 29 7 37 23 37
17 0 19 -8 19 -99 0 -91 -2 -99 -21 -104 -25 -7 -34 12 -25 53 5 29 4 30 -34
30 -40 0 -40 0 -40 -39 0 -30 -4 -40 -20 -44 -19 -5 -20 0 -20 99 0 97 1 104
20 104 17 0 20 -7 20 -39z m298 22 c-2 -11 -14 -19 -31 -21 -27 -3 -27 -4 -27
-83 0 -64 -3 -79 -15 -79 -27 0 -28 4 -26 84 l2 78 -30 -4 c-27 -4 -31 -2 -31
19 0 22 3 23 81 23 71 0 80 -2 77 -17z m234 -5 c5 -7 6 -28 4 -47 -3 -19 -1
-40 5 -47 6 -7 9 -25 7 -41 -4 -36 -38 -53 -105 -53 l-53 0 0 98 c0 54 3 102
8 106 11 13 124 -1 134 -16z m140 13 c29 -1 42 -7 55 -27 16 -24 16 -29 1 -54
-9 -16 -12 -32 -8 -37 4 -4 11 -25 14 -45 6 -33 4 -38 -12 -38 -13 0 -21 11
-28 38 -8 32 -13 37 -41 40 -32 3 -33 2 -33 -37 0 -34 -3 -41 -20 -41 -19 0
-20 7 -20 103 l0 103 28 -2 c15 -1 44 -3 64 -3z m246 -18 c-3 -15 -12 -17 -51
-15 -45 3 -47 2 -47 -22 0 -24 3 -26 45 -26 33 0 45 -4 45 -15 0 -11 -12 -15
-44 -15 -35 0 -45 -4 -49 -19 -7 -27 0 -31 55 -31 41 0 48 -3 48 -20 0 -18 -7
-20 -75 -20 l-75 0 0 100 0 100 76 0 c66 0 75 -2 72 -17z m160 -76 c17 -50 32
-95 32 -99 0 -5 -9 -8 -20 -8 -13 0 -22 9 -26 25 -5 21 -12 25 -40 25 -27 0
-37 -5 -46 -25 -6 -14 -20 -25 -30 -25 -22 0 -22 1 24 123 24 63 34 77 51 77
19 0 27 -14 55 -93z m102 53 l0 -40 36 40 c25 27 45 40 62 40 26 0 26 0 -12
-39 l-39 -40 35 -48 c53 -74 52 -73 21 -73 -23 0 -33 8 -53 45 -27 50 -47 47
-52 -8 -2 -24 -8 -33 -25 -35 -20 -3 -22 0 -18 35 1 21 3 66 4 101 1 55 3 62
21 62 17 0 20 -7 20 -40z m290 20 c0 -17 -7 -20 -50 -20 -43 0 -50 -3 -50 -20
0 -17 7 -20 45 -20 33 0 45 -4 45 -15 0 -11 -12 -15 -46 -15 -43 0 -45 -1 -42
-27 3 -25 7 -26 53 -27 37 -1 50 -5 50 -16 0 -12 -16 -16 -72 -18 l-73 -3 0
101 0 100 70 0 c63 0 70 -2 70 -20z m180 0 c24 -24 25 -39 6 -66 -8 -10 -11
-23 -7 -29 5 -5 11 -27 14 -47 5 -32 3 -38 -13 -38 -13 0 -21 11 -27 38 -8 32
-13 37 -41 40 -31 3 -32 2 -32 -37 0 -37 -2 -41 -25 -41 -25 0 -25 0 -25 93 0
52 3 97 7 100 3 4 33 7 65 7 45 0 63 -5 78 -20z m83 14 c-7 -3 -9 -12 -6 -20
3 -7 9 -11 14 -8 5 3 9 -5 8 -18 0 -13 -3 -17 -6 -10 -2 6 -9 10 -14 6 -5 -3
-9 4 -9 16 0 12 -4 18 -10 15 -14 -9 -12 -42 3 -48 9 -4 9 -6 0 -6 -7 -1 -17
7 -22 17 -12 23 12 62 37 61 10 0 12 -3 5 -5z m42 -24 c8 -25 -11 -60 -33 -59
-10 0 -12 3 -4 6 22 9 35 43 21 59 -7 9 -8 14 -1 14 6 0 13 -9 17 -20z m-2184
-268 c11 -28 -7 -38 -21 -12 -13 23 -42 26 -60 5 -15 -18 -5 -35 23 -35 63 0
89 -69 36 -99 -22 -12 -29 -12 -55 0 -17 8 -30 24 -32 37 -4 28 14 29 21 1 4
-16 12 -20 39 -17 49 5 45 37 -7 55 -51 18 -59 26 -51 56 12 48 91 54 107 9z
m59 -51 c0 -58 -4 -82 -15 -91 -13 -11 -15 -2 -15 72 0 47 3 88 7 91 17 18 23
1 23 -72z m50 4 l0 -75 40 0 c22 0 40 -4 40 -9 0 -9 -99 -20 -101 -11 -5 21
-6 102 -1 133 8 64 22 41 22 -38z m99 31 c6 -25 16 -57 22 -73 11 -27 11 -27
31 37 20 64 33 88 43 79 8 -9 -45 -156 -61 -169 -16 -14 -13 -20 -48 87 -13
40 -21 75 -18 78 13 12 20 2 31 -39z m226 29 c0 -5 -19 -11 -42 -13 -38 -3
-43 -6 -43 -28 0 -21 4 -24 40 -24 22 0 40 -4 40 -10 0 -5 -18 -10 -40 -10
-37 0 -40 -2 -40 -28 0 -26 2 -27 46 -23 34 2 45 0 42 -9 -2 -8 -25 -13 -58
-13 l-55 -1 -2 64 c-3 108 -1 112 60 108 29 -2 52 -7 52 -13z m136 -6 c12 -19
12 -56 -1 -64 -6 -4 -6 -15 0 -31 12 -32 13 -64 1 -64 -5 0 -12 16 -15 35 -6
32 -10 35 -41 35 -31 0 -34 -3 -37 -32 -2 -17 -7 -33 -13 -35 -6 -2 -9 30 -7
86 l3 90 50 -3 c31 -1 54 -8 60 -17z m1164 -231 c14 -6 25 -15 25 -21 0 -5 7
-6 16 -3 8 3 12 2 9 -4 -10 -17 8 -11 50 15 58 36 64 30 13 -12 -45 -36 -45
-36 -43 -94 1 -32 8 -66 16 -75 12 -15 12 -16 -7 -10 -15 5 -24 0 -34 -19 -7
-14 -17 -25 -22 -25 -4 0 -8 -108 -8 -240 0 -263 -5 -291 -55 -324 -26 -17
-52 -18 -454 -12 -234 3 -496 8 -581 11 -85 3 -267 7 -405 11 -137 3 -267 10
-288 15 -26 7 -44 20 -57 42 -18 30 -20 52 -20 295 0 296 5 324 64 346 23 9
212 10 761 3 402 -4 745 -5 763 -2 l33 6 -23 20 -23 20 32 -4 c25 -3 34 1 44
21 7 13 25 30 39 37 31 17 120 19 155 3z m2140 -338 c3 -5 1 -10 -4 -10 -6 0
-11 5 -11 10 0 6 2 10 4 10 3 0 8 -4 11 -10z m53 -19 c-9 -15 -16 -17 -25 -9
-16 13 -7 28 18 28 16 0 18 -3 7 -19z m198 -6 c12 -13 18 -27 13 -30 -5 -4 -9
-1 -9 4 0 6 -9 11 -21 11 -11 0 -17 5 -14 10 4 6 -5 10 -19 10 -14 0 -26 5
-26 10 0 20 53 10 76 -15z m-74 -17 c-19 -19 -14 -23 32 -23 24 0 47 -2 50 -5
3 -3 7 -28 10 -55 3 -29 1 -43 -4 -35 -5 8 -27 15 -50 17 -25 2 -39 -1 -35 -7
3 -6 19 -10 36 -10 16 0 29 -3 29 -8 0 -6 -42 -7 -112 -2 -5 0 -8 5 -8 11 0 5
3 8 8 6 4 -3 7 19 7 49 0 38 5 58 15 64 21 14 36 12 22 -2z m-62 -8 c0 -5 -4
-10 -10 -10 -5 0 -10 5 -10 10 0 6 5 10 10 10 6 0 10 -4 10 -10z m100 -183 c0
-44 -2 -48 -22 -45 -18 2 -24 11 -26 36 -4 45 2 58 27 58 18 0 21 -6 21 -49z
m-88 -24 c-10 -26 -10 -24 -11 22 0 42 2 46 11 28 7 -15 7 -30 0 -50z m144 10
c-10 -10 -19 5 -10 18 6 11 8 11 12 0 2 -7 1 -15 -2 -18z m-2881 -282 c446 -7
441 -6 471 -76 22 -52 20 -529 -2 -584 -29 -73 -39 -75 -397 -61 -172 6 -474
15 -672 20 -198 5 -439 12 -535 16 l-175 7 -32 33 -33 32 0 282 0 282 36 36
35 35 452 -7 c249 -5 632 -11 852 -15z m1225 -133 c32 -200 100 -452 167 -622
19 -48 31 -91 26 -96 -4 -4 -38 -24 -74 -44 l-66 -36 -50 117 c-86 202 -178
503 -207 679 l-7 42 93 15 c51 8 96 15 100 16 3 1 11 -32 18 -71z m1538 -165
c-10 -2 -26 -2 -35 0 -10 3 -2 5 17 5 19 0 27 -2 18 -5z m85 -10 c-7 -2 -21
-2 -30 0 -10 3 -4 5 12 5 17 0 24 -2 18 -5z m1476 -658 c0 -5 -6 1 -14 15 -8
14 -14 30 -14 35 0 6 6 -1 14 -15 8 -14 14 -29 14 -35z m-2811 -61 c69 -138
156 -283 249 -413 l74 -104 -50 -51 c-45 -45 -52 -49 -63 -34 -77 96 -167 221
-220 303 -72 112 -188 315 -188 330 0 9 113 71 135 74 6 0 34 -47 63 -105z
m2812 -255 c-5 -19 -16 -44 -25 -54 -13 -18 -13 -16 -1 20 8 22 17 49 20 59
11 33 16 11 6 -25z m-909 14 c13 -16 12 -17 -3 -4 -10 7 -18 15 -18 17 0 8 8
3 21 -13z m-1312 -574 c69 -69 150 -146 180 -171 l53 -46 -27 -46 c-15 -25
-29 -46 -32 -46 -6 0 -73 52 -173 136 -99 83 -320 302 -320 318 0 6 21 30 47
53 l48 42 49 -57 c28 -31 106 -114 175 -183z m481 -392 c63 -41 151 -95 195
-119 85 -47 88 -53 66 -111 l-11 -27 -69 34 c-156 79 -421 244 -421 263 0 4
12 26 26 50 l25 44 37 -29 c20 -16 89 -63 152 -105z m665 113 c3 -5 -1 -10 -9
-10 -9 0 -16 5 -16 10 0 6 4 10 9 10 6 0 13 -4 16 -10z m-249 -344 c81 -39
239 -102 307 -123 38 -11 47 -18 47 -36 0 -47 -9 -47 -150 -3 -136 42 -263 88
-289 105 -13 8 -13 15 -1 50 7 23 14 41 15 41 1 0 33 -15 71 -34z m602 -202
c91 -19 169 -37 173 -39 3 -3 4 -15 2 -28 l-5 -24 -85 14 c-95 15 -264 51
-270 57 -5 5 8 56 15 56 3 0 79 -16 170 -36z m357 -59 c119 -10 145 -16 145
-31 0 -11 -22 -14 -107 -14 -125 0 -153 6 -153 29 0 23 10 32 29 27 9 -3 48
-8 86 -11z"/>
<path d="M1394 4286 c-9 -23 2 -33 33 -32 21 1 28 6 28 21 0 25 -52 35 -61 11z"/>
<path d="M1390 4195 c0 -24 3 -26 38 -23 29 2 37 7 37 23 0 16 -8 21 -37 23
-35 3 -38 1 -38 -23z"/>
<path d="M1580 4272 c0 -25 4 -29 29 -30 34 -1 54 18 45 42 -4 10 -18 16 -40
16 -31 0 -34 -3 -34 -28z"/>
<path d="M1971 4257 c-15 -39 -14 -47 9 -47 21 0 23 9 10 50 l-7 25 -12 -28z"/>
<path d="M2510 4270 c0 -27 3 -30 34 -30 37 0 49 15 34 43 -5 10 -20 17 -38
17 -27 0 -30 -3 -30 -30z"/>
<path d="M1030 4002 c0 -28 1 -29 38 -23 28 5 37 11 37 26 0 16 -8 21 -37 23
-36 3 -38 2 -38 -26z"/>
<path d="M810 3595 c0 -25 5 -45 10 -45 6 0 10 20 10 45 0 25 -4 45 -10 45 -5
0 -10 -20 -10 -45z"/>
<path d="M912 3597 c-62 -36 -73 -117 -23 -168 91 -90 220 46 134 141 -32 35
-78 46 -111 27z m56 -50 c2 -20 10 -27 30 -29 35 -4 37 -33 2 -33 -20 0 -26
-7 -30 -30 -7 -38 -23 -38 -30 1 -4 23 -11 30 -33 32 -35 4 -30 26 6 30 23 3
27 8 27 33 0 38 24 34 28 -4z"/>
<path d="M620 3562 c0 -4 16 -23 35 -42 23 -22 35 -29 35 -19 0 8 -13 27 -28
42 -29 27 -42 33 -42 19z"/>
<path d="M1450 3497 c0 -38 15 -57 45 -57 30 0 45 19 45 57 0 43 -18 43 -22 1
-2 -25 -8 -33 -23 -33 -15 0 -21 8 -23 33 -4 42 -22 42 -22 -1z"/>
<path d="M1558 3523 c-9 -18 -2 -77 10 -80 6 -3 12 2 12 11 0 9 11 16 28 18
21 2 27 8 27 28 0 22 -5 25 -37 28 -20 2 -38 -1 -40 -5z m57 -23 c-3 -5 -13
-10 -21 -10 -8 0 -14 5 -14 10 0 6 9 10 21 10 11 0 17 -4 14 -10z"/>
<path d="M1670 3520 c0 -5 7 -10 15 -10 10 0 15 -11 15 -35 0 -19 5 -35 10
-35 6 0 10 16 10 35 0 24 5 35 14 35 8 0 18 5 21 10 4 6 -12 10 -39 10 -25 0
-46 -4 -46 -10z"/>
<path d="M1768 3506 c-13 -31 -5 -54 24 -65 52 -19 92 22 63 65 -22 33 -71 33
-87 0z m72 -21 c0 -32 -28 -45 -46 -21 -17 24 -7 46 22 46 19 0 24 -5 24 -25z"/>
<path d="M743 3500 c-108 -66 -98 -233 18 -285 88 -40 182 16 204 121 6 30 4
32 -28 38 -48 9 -85 46 -99 100 -10 39 -16 46 -38 46 -14 0 -39 -9 -57 -20z
m67 -37 c0 -31 42 -82 85 -103 42 -20 43 -22 33 -51 -21 -61 -100 -94 -156
-65 -48 25 -72 63 -72 113 0 57 23 101 63 118 35 15 47 12 47 -12z"/>
<path d="M1393 3385 c-5 -9 -19 -17 -31 -18 -32 -2 -29 -37 3 -37 24 0 25 -3
25 -61 0 -57 1 -60 23 -57 21 3 22 7 22 93 0 76 -3 90 -17 93 -9 2 -20 -4 -25
-13z"/>
<path d="M1490 3378 c-62 -67 -20 -178 67 -178 49 0 93 45 93 95 0 42 -22 90
-45 99 -38 14 -94 6 -115 -16z m98 -30 c15 -15 16 -63 2 -89 -6 -11 -21 -19
-35 -19 -28 0 -45 26 -45 67 0 34 16 53 45 53 12 0 26 -5 33 -12z"/>
<path d="M1703 3376 c-24 -21 -28 -32 -28 -76 0 -44 4 -55 28 -76 40 -34 90
-32 128 5 88 89 -33 228 -128 147z m95 -28 c28 -28 6 -118 -29 -118 -18 0 -49
41 -49 66 0 54 45 85 78 52z"/>
<path d="M1912 3389 c-30 -11 -32 -73 -3 -89 31 -16 49 -12 67 15 30 47 -10
94 -64 74z m48 -43 c0 -32 -18 -43 -37 -23 -20 20 -10 47 17 47 15 0 20 -7 20
-24z"/>
<path d="M1997 3294 c-31 -53 -52 -94 -45 -92 12 4 116 164 117 181 3 25 -21
-5 -72 -89z"/>
<path d="M550 3365 c0 -13 9 -16 43 -13 23 2 42 8 42 13 0 6 -19 11 -42 13
-34 3 -43 0 -43 -13z"/>
<path d="M1000 3360 c0 -5 18 -10 40 -10 22 0 40 5 40 10 0 6 -18 10 -40 10
-22 0 -40 -4 -40 -10z"/>
<path d="M1237 3343 c-4 -3 -7 -16 -7 -29 0 -17 -4 -21 -20 -17 -14 4 -20 0
-20 -11 0 -9 8 -16 19 -16 14 0 21 -8 23 -27 4 -36 26 -41 30 -6 2 23 7 27 26
25 17 -3 22 2 22 18 0 16 -5 21 -22 18 -19 -2 -24 2 -26 25 -3 26 -12 34 -25
20z"/>
<path d="M2046 3284 c-20 -20 -21 -58 -1 -74 20 -17 65 -16 76 1 23 36 -2 89
-41 89 -10 0 -26 -7 -34 -16z m52 -37 c3 -22 -1 -27 -17 -27 -15 0 -21 6 -21
23 0 46 33 49 38 4z"/>
<path d="M647 3202 c-29 -30 -33 -42 -16 -42 12 0 59 50 59 63 0 14 -17 6 -43
-21z"/>
<path d="M946 3222 c-2 -4 9 -22 24 -40 15 -19 30 -30 33 -25 3 4 -8 23 -23
40 -16 18 -31 29 -34 25z"/>
<path d="M806 3163 c-9 -10 -7 -81 3 -87 11 -7 21 18 21 54 0 29 -12 45 -24
33z"/>
<path d="M511 2927 c-48 -28 -50 -44 -51 -325 l0 -264 29 -29 c29 -29 30 -29
152 -29 106 0 725 -16 1382 -35 l188 -5 30 29 29 29 0 272 c0 296 -2 309 -58
328 -15 5 -81 10 -147 11 -583 8 -1276 22 -1390 26 -110 4 -145 3 -164 -8z
m969 -190 c0 -38 6 -48 26 -40 8 3 14 19 14 39 0 19 5 34 10 34 6 0 10 -18 10
-40 0 -45 -14 -56 -55 -46 -21 5 -25 12 -25 46 0 22 5 40 10 40 6 0 10 -15 10
-33z m165 23 c14 -22 -6 -50 -36 -50 -19 0 -29 -5 -29 -15 0 -8 -4 -15 -10
-15 -5 0 -10 20 -10 45 l0 45 39 0 c22 0 43 -5 46 -10z m115 0 c0 -5 -7 -10
-15 -10 -10 0 -15 -11 -15 -35 0 -19 -4 -35 -10 -35 -5 0 -10 16 -10 35 0 24
-5 35 -15 35 -8 0 -15 5 -15 10 0 6 18 10 40 10 22 0 40 -4 40 -10z m99 -4
c17 -20 10 -67 -11 -80 -28 -17 -72 4 -76 37 -4 36 13 57 48 57 15 0 33 -6 39
-14z m-849 -11 c35 -18 50 -43 50 -84 0 -92 -89 -134 -151 -72 -60 60 -23 166
59 170 7 1 26 -6 42 -14z m-230 -75 c0 -13 7 -20 20 -20 13 0 20 7 20 20 0 13
7 20 19 20 14 0 20 -10 24 -42 4 -32 15 -51 41 -75 20 -18 45 -33 56 -33 19 0
70 -66 70 -90 0 -11 -128 -14 -178 -4 -26 5 -31 12 -34 38 -2 20 -9 32 -20 34
-15 3 -18 -4 -18 -33 l0 -36 -106 2 c-88 1 -104 4 -100 16 4 8 34 62 68 119
61 103 62 104 100 104 31 0 38 -4 38 -20z m570 -125 c0 -95 0 -95 -25 -95 -24
0 -25 3 -25 60 0 57 -1 60 -25 60 -18 0 -25 5 -25 20 0 15 7 20 25 20 14 0 28
7 31 15 4 8 15 15 25 15 17 0 19 -8 19 -95z m190 75 c23 -23 25 -41 8 -58 -9
-9 -9 -15 0 -24 16 -16 15 -63 0 -76 -23 -18 -75 -23 -116 -13 -36 10 -52 26
-52 52 0 16 48 10 54 -7 9 -24 71 -15 71 11 0 14 -8 21 -29 25 -37 6 -47 30
-13 30 31 0 51 22 35 38 -16 16 -43 15 -58 -3 -14 -17 -46 -20 -55 -5 -3 5 3
18 15 30 28 28 112 28 140 0z m219 -16 c20 -23 22 -35 18 -78 -6 -63 -31 -86
-94 -86 -63 0 -93 32 -93 98 0 73 36 106 105 98 27 -3 47 -13 64 -32z m151
-37 l26 -69 25 64 c25 63 25 63 67 66 l43 3 -3 -98 c-3 -97 -3 -98 -28 -98
-24 0 -25 2 -24 68 1 78 -4 76 -36 -10 -34 -94 -65 -83 -100 35 -7 23 -16 42
-20 42 -3 0 -4 -29 -2 -65 l4 -65 -31 0 -32 0 2 93 c1 50 4 96 6 100 3 4 21 7
41 5 35 -3 37 -6 62 -71z"/>
<path d="M1580 2740 c0 -5 9 -10 20 -10 11 0 20 5 20 10 0 6 -9 10 -20 10 -11
0 -20 -4 -20 -10z"/>
<path d="M1796 2733 c-4 -9 0 -23 9 -32 13 -14 17 -14 32 1 13 14 14 20 3 32
-16 21 -36 20 -44 -1z"/>
<path d="M960 2700 c0 -25 -4 -30 -24 -30 -24 0 -47 -19 -27 -21 6 -1 16 -3
21 -4 6 -1 15 -3 20 -4 6 0 10 -12 10 -26 0 -14 5 -25 10 -25 6 0 10 11 10 25
0 20 5 25 25 25 16 0 25 6 25 15 0 9 -9 15 -25 15 -21 0 -25 5 -25 30 0 17 -4
30 -10 30 -5 0 -10 -13 -10 -30z"/>
<path d="M780 2585 c0 -29 3 -36 18 -33 11 2 17 13 17 33 0 20 -6 31 -17 33
-15 3 -18 -4 -18 -33z"/>
<path d="M1652 2588 c-19 -19 -15 -82 7 -102 41 -38 90 30 60 83 -16 29 -48
38 -67 19z"/>
<path d="M4710 4371 c0 -45 -18 -57 -66 -45 -17 4 -25 3 -21 -3 4 -6 24 -13
46 -17 l39 -6 7 -236 c6 -177 5 -238 -4 -244 -7 -4 -11 -11 -10 -16 1 -5 1
-21 0 -36 -1 -25 -3 -26 -50 -24 -40 1 -51 -2 -54 -16 -7 -24 0 -28 55 -28 42
0 48 -3 48 -21 0 -11 5 -29 10 -40 8 -14 7 -19 -1 -19 -14 0 -6 -77 10 -93 8
-8 11 5 11 45 0 30 5 79 10 109 7 37 7 55 0 57 -6 2 -10 102 -10 283 0 171 4
278 9 274 17 -10 22 13 6 28 -8 9 -15 32 -15 51 0 20 -4 36 -10 36 -5 0 -10
-18 -10 -39z"/>
<path d="M4173 4240 c0 -25 2 -35 4 -22 2 12 2 32 0 45 -2 12 -4 2 -4 -23z"/>
<path d="M4338 4223 c7 -3 16 -2 19 1 4 3 -2 6 -13 5 -11 0 -14 -3 -6 -6z"/>
<path d="M4435 4208 c-2 -7 -6 -66 -10 -130 l-6 -118 25 0 c13 0 27 7 30 16 3
9 6 67 6 130 0 108 -1 114 -20 114 -11 0 -22 -6 -25 -12z"/>
<path d="M4598 4010 c-4 -8 -10 -64 -14 -125 -6 -87 -9 -103 -15 -75 -7 28 -7
25 -4 -17 l4 -52 -105 5 -106 5 4 -23 c3 -22 7 -23 88 -25 47 0 91 3 98 9 9 8
12 6 12 -6 0 -9 4 -16 9 -16 8 0 27 113 33 200 2 26 7 35 21 34 21 -2 23 12 3
19 -8 3 -16 23 -18 44 -2 23 -6 32 -10 23z"/>
<path d="M4555 3950 c-16 -7 -17 -9 -3 -9 9 -1 19 -9 21 -18 3 -11 5 -7 6 10
0 15 0 27 -1 26 -2 0 -12 -4 -23 -9z"/>
<path d="M4480 3770 c0 -5 9 -10 20 -10 11 0 20 5 20 10 0 6 -9 10 -20 10 -11
0 -20 -4 -20 -10z"/>
<path d="M4630 3770 c0 -5 12 -10 26 -10 14 0 23 4 19 10 -3 6 -15 10 -26 10
-10 0 -19 -4 -19 -10z"/>
<path d="M4288 3733 c-12 -3 -18 -14 -17 -31 1 -16 3 -20 6 -10 2 10 10 15 19
11 9 -3 14 2 14 16 0 12 -1 20 -2 20 -2 -1 -11 -3 -20 -6z"/>
<path d="M4560 3615 c0 -50 -3 -64 -12 -59 -8 5 -7 0 2 -10 14 -18 15 -18 21
5 11 38 10 117 -1 124 -6 4 -10 -18 -10 -60z"/>
<path d="M4131 3593 c-7 -38 -11 -79 -9 -93 2 -14 10 15 17 63 16 105 10 126
-8 30z"/>
<path d="M4365 3640 c-3 -5 3 -10 14 -10 12 0 21 5 21 10 0 6 -6 10 -14 10 -8
0 -18 -4 -21 -10z"/>
<path d="M4462 3623 c12 -15 32 -18 24 -4 -4 5 0 11 6 14 7 2 1 4 -14 3 -20
-1 -24 -4 -16 -13z"/>
<path d="M4620 3630 c8 -5 23 -10 33 -10 10 0 15 -4 12 -10 -3 -5 -2 -10 3
-10 8 0 22 22 22 36 0 2 -19 4 -42 4 -32 0 -39 -3 -28 -10z"/>
<path d="M4322 3595 c0 -16 2 -22 5 -12 2 9 2 23 0 30 -3 6 -5 -1 -5 -18z"/>
<path d="M4810 3506 c0 -2 7 -9 15 -16 12 -10 15 -10 15 4 0 9 -7 16 -15 16
-8 0 -15 -2 -15 -4z"/>
<path d="M4340 3489 c0 -5 5 -7 10 -4 6 3 10 8 10 11 0 2 -4 4 -10 4 -5 0 -10
-5 -10 -11z"/>
<path d="M4130 3431 c0 -17 5 -31 10 -31 6 0 10 11 10 24 0 14 -4 28 -10 31
-6 4 -10 -7 -10 -24z"/>
<path d="M4907 3443 c-11 -10 -8 -43 3 -43 6 0 10 11 10 25 0 26 -2 29 -13 18z"/>
<path d="M4131 3354 c-1 -45 18 -64 39 -39 15 18 6 45 -14 45 -8 0 -17 8 -19
18 -3 9 -5 -2 -6 -24z"/>
<path d="M4897 3330 c3 -11 9 -20 14 -20 5 0 9 9 9 20 0 11 -6 20 -14 20 -9 0
-12 -7 -9 -20z"/>
<path d="M4829 3321 c7 -5 11 -13 7 -19 -3 -5 1 -15 9 -22 12 -10 16 -9 22 6
4 10 2 19 -5 22 -7 2 -10 8 -6 13 3 5 -5 9 -18 9 -17 0 -19 -3 -9 -9z"/>
<path d="M4138 3256 c-3 -14 -1 -31 3 -38 6 -8 9 1 9 25 0 42 -6 48 -12 13z"/>
<path d="M4792 3268 c3 -7 13 -15 22 -16 12 -3 17 1 14 10 -3 7 -13 15 -22 16
-12 3 -17 -1 -14 -10z"/>
<path d="M4903 3235 c0 -22 2 -30 4 -17 2 12 2 30 0 40 -3 9 -5 -1 -4 -23z"/>
<path d="M5265 3250 c-59 -9 -139 -30 -133 -35 2 -2 28 2 58 10 30 8 71 14 90
14 29 -1 26 -3 -16 -9 -83 -12 -151 -39 -228 -91 -175 -116 -264 -331 -223
-534 37 -181 146 -324 307 -404 47 -23 74 -39 60 -36 -101 26 -230 122 -290
215 -36 56 -51 67 -23 18 32 -59 154 -173 219 -206 105 -53 183 -69 304 -61
46 2 39 4 -40 9 l-95 6 90 2 c152 4 274 59 377 171 98 105 138 211 138 361 0
137 -40 249 -125 353 -55 68 -165 144 -252 173 -67 23 -70 33 -4 14 19 -5 37
-8 39 -5 7 7 -99 33 -153 37 -27 3 -72 2 -100 -2z m118 -17 c-7 -2 -21 -2 -30
0 -10 3 -4 5 12 5 17 0 24 -2 18 -5z m70 -39 c170 -44 306 -170 364 -336 118
-339 -120 -689 -467 -688 -144 0 -274 54 -375 155 -209 209 -208 546 2 747
127 121 305 166 476 122z m-210 -1041 c-7 -2 -19 -2 -25 0 -7 3 -2 5 12 5 14
0 19 -2 13 -5z"/>
<path d="M5248 3149 c-24 -13 -23 -61 1 -83 39 -36 110 5 93 54 -12 36 -58 50
-94 29z m60 -26 c13 -26 4 -43 -24 -43 -39 0 -32 55 8 59 4 1 11 -7 16 -16z"/>
<path d="M5381 3142 c-5 -9 -11 -32 -13 -51 -3 -30 0 -35 24 -42 36 -9 56 7
60 50 3 30 -1 36 -29 48 -29 11 -33 11 -42 -5z m50 -12 c5 0 9 -7 9 -16 0 -11
-5 -14 -16 -10 -9 3 -20 6 -25 6 -5 0 -9 7 -9 16 0 11 5 14 16 10 9 -3 20 -6
25 -6z m0 -55 c0 -14 -23 -17 -40 -6 -20 13 -4 31 20 23 11 -5 20 -12 20 -17z"/>
<path d="M5165 3113 c5 -10 8 -29 9 -43 1 -37 -28 -37 -44 0 -7 16 -16 30 -21
30 -13 0 -11 -17 6 -50 18 -35 53 -40 79 -11 15 17 16 25 6 55 -6 21 -18 36
-27 36 -11 0 -13 -5 -8 -17z"/>
<path d="M5484 3085 c-35 -54 37 -115 78 -65 23 29 23 45 -2 70 -27 27 -56 25
-76 -5z m76 -15 c7 -13 5 -24 -8 -40 -16 -19 -22 -21 -40 -11 -26 14 -29 56
-5 69 21 12 41 5 53 -18z"/>
<path d="M5007 3022 l-27 -28 33 -32 33 -32 27 28 c31 32 34 54 11 76 -23 23
-47 20 -77 -12z m67 -15 c8 -13 6 -21 -7 -34 -16 -16 -18 -16 -40 5 -22 23
-22 23 -2 38 22 17 34 14 49 -9z"/>
<path d="M5617 3018 c-6 -21 -14 -28 -32 -28 -14 0 -25 -5 -25 -10 0 -6 11 -8
25 -4 22 5 25 3 26 -22 1 -25 2 -23 10 11 12 49 8 96 -4 53z"/>
<path d="M5259 2997 c-140 -39 -229 -151 -230 -290 -1 -146 65 -250 197 -309
58 -25 179 -22 235 5 62 30 116 85 146 145 24 48 28 69 27 137 0 66 -5 90 -27
137 -64 132 -220 210 -348 175z m77 -186 c38 -23 49 -63 24 -94 -10 -11 -45
-30 -80 -42 -34 -11 -61 -25 -61 -30 1 -10 5 -11 94 -13 50 -2 57 -5 57 -22 0
-19 -7 -20 -115 -20 -126 0 -130 2 -101 59 13 25 45 44 119 71 33 12 44 35 27
55 -18 21 -56 18 -79 -6 -13 -14 -28 -19 -50 -17 -29 3 -30 4 -18 28 7 13 24
30 37 37 37 19 110 16 146 -6z m119 -123 l16 -23 16 23 c8 12 22 22 29 22 20
0 17 -10 -8 -37 l-21 -23 22 -24 c13 -14 21 -30 19 -38 -3 -8 -14 -3 -32 17
l-28 30 -18 -23 c-17 -21 -40 -30 -40 -15 0 4 10 17 22 30 l22 23 -22 30 c-17
23 -19 30 -8 30 8 0 22 -10 31 -22z"/>
<path d="M5650 2990 c-13 -8 -12 -10 3 -10 9 0 17 5 17 10 0 12 -1 12 -20 0z"/>
<path d="M4942 2818 c-28 -86 -21 -214 13 -278 19 -33 18 -17 0 44 -17 57 -19
164 -4 219 13 48 5 61 -9 15z"/>
<path d="M5700 2836 c0 -2 7 -33 16 -67 18 -69 14 -149 -12 -221 -19 -53 -9
-63 12 -12 32 74 27 279 -7 300 -5 3 -9 3 -9 0z"/>
<path d="M4912 2790 c0 -14 2 -19 5 -12 2 6 2 18 0 25 -3 6 -5 1 -5 -13z"/>
<path d="M5741 2794 c0 -11 3 -14 6 -6 3 7 2 16 -1 19 -3 4 -6 -2 -5 -13z"/>
<path d="M5752 2750 c0 -14 2 -19 5 -12 2 6 2 18 0 25 -3 6 -5 1 -5 -13z"/>
<path d="M4901 2699 c1 -35 4 -75 9 -89 4 -14 5 13 2 60 -6 102 -12 119 -11
29z"/>
<path d="M5762 2680 c0 -14 2 -19 5 -12 2 6 2 18 0 25 -3 6 -5 1 -5 -13z"/>
<path d="M5752 2615 c0 -16 2 -22 5 -12 2 9 2 23 0 30 -3 6 -5 -1 -5 -18z"/>
<path d="M4921 2570 c0 -8 4 -22 9 -30 12 -18 12 -2 0 25 -6 13 -9 15 -9 5z"/>
<path d="M5732 2543 c-6 -20 -7 -32 -2 -27 10 10 25 64 18 64 -3 0 -10 -16
-16 -37z"/>
<path d="M5027 2422 c-34 -36 -34 -44 4 -77 28 -23 34 -24 53 -12 32 22 32 58
-2 90 l-28 27 -27 -28z m53 -56 c-28 -35 -69 -6 -42 30 17 22 17 22 36 4 16
-16 17 -22 6 -34z"/>
<path d="M5601 2406 c-1 -23 -5 -27 -21 -23 -11 3 -20 1 -20 -4 0 -5 9 -9 20
-9 13 0 22 -10 29 -32 l9 -33 0 35 c0 19 -4 49 -8 65 l-8 30 -1 -29z"/>
<path d="M5122 2336 c-7 -18 -10 -40 -7 -48 6 -15 46 -38 65 -38 12 0 51 76
43 84 -12 12 -21 6 -33 -24 -8 -19 -20 -30 -32 -30 -21 0 -21 8 -3 68 12 37
-19 27 -33 -12z"/>
<path d="M5638 2363 c7 -3 16 -2 19 1 4 3 -2 6 -13 5 -11 0 -14 -3 -6 -6z"/>
<path d="M5481 2346 c-16 -19 -10 -66 10 -79 44 -28 95 25 69 72 -13 25 -61
29 -79 7z m69 -11 c26 -32 -13 -81 -47 -59 -35 22 -23 74 17 74 10 0 23 -7 30
-15z"/>
<path d="M5252 2315 c-27 -19 -29 -56 -4 -78 37 -33 102 -12 102 33 0 19 -25
50 -40 50 -5 0 -14 2 -22 5 -7 3 -23 -2 -36 -10z m66 -39 c5 -25 -12 -39 -37
-31 -20 6 -28 34 -14 49 13 13 48 1 51 -18z"/>
<path d="M5387 2323 c-26 -4 -27 -6 -21 -46 8 -54 15 -61 54 -52 35 8 48 28
31 49 -6 7 -8 16 -4 19 6 7 -16 38 -26 36 -3 -1 -18 -4 -34 -6z m41 -25 c-7
-20 -48 -23 -48 -4 0 11 9 16 26 16 16 0 24 -5 22 -12z m12 -42 c0 -7 -11 -16
-25 -18 -19 -4 -25 -1 -25 13 0 14 7 19 25 19 15 0 25 -6 25 -14z"/>
<path d="M4835 3201 c-6 -11 9 -23 19 -14 9 9 7 23 -3 23 -6 0 -12 -4 -16 -9z"/>
<path d="M5078 3194 c-39 -21 -35 -28 5 -8 37 19 44 24 31 24 -5 -1 -21 -8
-36 -16z"/>
<path d="M5530 3206 c0 -2 7 -7 16 -10 8 -3 12 -2 9 4 -6 10 -25 14 -25 6z"/>
<path d="M5570 3186 c0 -2 7 -7 16 -10 8 -3 12 -2 9 4 -6 10 -25 14 -25 6z"/>
<path d="M4982 3130 c-45 -36 -102 -103 -127 -150 -12 -23 5 -3 53 60 22 31
61 71 86 90 43 31 52 40 42 40 -2 0 -26 -18 -54 -40z"/>
<path d="M5640 3146 c0 -2 8 -10 18 -17 15 -13 16 -12 3 4 -13 16 -21 21 -21
13z"/>
<path d="M5736 3055 c69 -85 69 -85 55 -58 -6 12 -34 45 -62 75 l-50 53 57
-70z"/>
<path d="M5817 2935 c9 -19 18 -33 21 -31 4 5 -26 66 -33 66 -3 0 3 -16 12
-35z"/>
<path d="M4811 2889 c-6 -18 -11 -37 -10 -43 0 -6 7 7 15 28 8 22 12 41 10 43
-2 2 -9 -10 -15 -28z"/>
<path d="M5842 2885 c0 -5 6 -26 13 -45 7 -19 14 -28 14 -20 0 8 -6 29 -14 45
-7 17 -13 26 -13 20z"/>
<path d="M4792 2810 c0 -14 2 -19 5 -12 2 6 2 18 0 25 -3 6 -5 1 -5 -13z"/>
<path d="M5872 2775 c0 -16 2 -22 5 -12 2 9 2 23 0 30 -3 6 -5 -1 -5 -18z"/>
<path d="M4783 2705 c0 -44 2 -61 4 -37 2 23 2 59 0 80 -2 20 -4 1 -4 -43z"/>
<path d="M5883 2680 c0 -36 2 -50 4 -32 2 17 2 47 0 65 -2 17 -4 3 -4 -33z"/>
<path d="M4792 2590 c0 -14 2 -19 5 -12 2 6 2 18 0 25 -3 6 -5 1 -5 -13z"/>
<path d="M5872 2585 c0 -16 2 -22 5 -12 2 9 2 23 0 30 -3 6 -5 -1 -5 -18z"/>
<path d="M5861 2534 c0 -11 3 -14 6 -6 3 7 2 16 -1 19 -3 4 -6 -2 -5 -13z"/>
<path d="M4820 2495 c0 -5 5 -17 10 -25 5 -8 10 -10 10 -5 0 6 -5 17 -10 25
-5 8 -10 11 -10 5z"/>
<path d="M5815 2422 c-17 -34 -61 -89 -108 -136 -71 -71 -69 -77 5 -14 48 42
148 191 136 203 -2 2 -17 -22 -33 -53z"/>
<path d="M4885 2250 c10 -11 20 -20 23 -20 3 0 -3 9 -13 20 -10 11 -20 20 -23
20 -3 0 3 -9 13 -20z"/>
<path d="M4920 2216 c0 -2 8 -10 18 -17 15 -13 16 -12 3 4 -13 16 -21 21 -21
13z"/>
<path d="M5580 2190 c-9 -6 -10 -10 -3 -10 6 0 15 5 18 10 8 12 4 12 -15 0z"/>
<path d="M5093 2069 c-1 -18 -1 -30 0 -28 2 2 11 16 20 32 17 26 17 27 0 27
-13 0 -19 -9 -20 -31z"/>
<path d="M1081 326 c2 -2 15 -9 29 -15 24 -11 24 -11 6 3 -16 13 -49 24 -35
12z"/>
</g>
</svg>
