<?xml version="1.0" standalone="no"?>
<!DOCTYPE svg PUBLIC "-//W3C//DTD SVG 20010904//EN"
 "http://www.w3.org/TR/2001/REC-SVG-20010904/DTD/svg10.dtd">
<svg version="1.0" xmlns="http://www.w3.org/2000/svg"
 width="768.000000pt" height="768.000000pt" viewBox="0 0 768.000000 768.000000"
 preserveAspectRatio="xMidYMid meet">

<g transform="translate(0.000000,768.000000) scale(0.100000,-0.100000)"
fill="#000000" stroke="none">
<path d="M5145 7360 c-165 -3 -309 -10 -320 -15 -11 -5 -76 -41 -145 -80 -69
-39 -228 -129 -355 -200 -506 -284 -487 -272 -463 -279 13 -3 37 -6 54 -6 37
0 105 -43 159 -100 l40 -42 235 7 c256 8 273 6 347 -51 53 -40 76 -96 68 -163
-8 -69 -34 -113 -89 -150 l-41 -29 -365 -6 c-201 -3 -435 -8 -520 -10 -85 -3
-265 -6 -400 -7 -232 -3 -247 -2 -285 18 -22 12 -52 33 -66 47 l-26 25 -38
-20 c-44 -24 -144 -80 -583 -327 l-303 -171 -242 -6 c-377 -8 -600 -16 -624
-22 -13 -3 -23 -11 -23 -18 0 -7 -13 -18 -30 -24 l-30 -10 0 -563 c0 -310 3
-965 7 -1456 l6 -892 24 16 c14 8 208 117 431 241 224 124 413 232 421 238 17
17 17 283 -4 1290 -6 277 -3 295 60 347 68 57 60 56 490 63 220 3 414 8 430
10 17 2 505 7 1085 11 l1055 6 525 290 c824 456 866 480 844 490 -16 7 -15 8
4 4 31 -6 52 3 52 21 0 13 -27 15 -192 13 -106 -1 -224 -2 -262 -1 l-68 1 5
33 c3 17 2 77 -1 132 -6 83 -10 100 -24 103 -15 3 -18 -8 -20 -90 l-3 -93 -36
90 c-24 61 -41 91 -54 93 -28 6 -35 -18 -29 -99 4 -42 4 -97 0 -123 -7 -43 -9
-46 -38 -46 -25 0 -29 3 -23 17 9 26 23 100 28 155 3 32 0 51 -9 59 -17 14
-29 74 -18 91 5 7 7 61 5 121 -3 87 -1 106 10 102 21 -7 41 10 37 31 -3 17
-12 19 -73 18 -68 0 -70 -1 -73 -27 -3 -23 0 -27 23 -27 l26 0 -3 -97 c-3 -96
-3 -98 -26 -95 -22 3 -23 2 -11 -20 6 -13 17 -27 23 -31 7 -5 5 -12 -8 -20
-10 -7 -31 -22 -46 -35 -22 -18 -33 -20 -53 -13 -13 5 -27 17 -30 25 -5 12
-14 15 -32 10 -35 -9 -33 16 4 71 28 42 29 48 24 122 -4 44 -12 83 -20 91 -7
7 -13 20 -13 28 0 8 -10 14 -25 14 -24 0 -25 -3 -25 -56 0 -40 -3 -54 -12 -51
-7 2 -12 13 -10 25 2 13 -5 26 -17 34 -12 7 -21 23 -21 35 0 25 -11 28 -40 13
-14 -8 -17 -20 -15 -65 2 -30 -1 -55 -6 -55 -5 0 -9 15 -9 33 0 47 -21 87 -45
87 -18 0 -23 -11 -37 -82 l-15 -83 -2 68 c-1 77 -16 103 -54 93 -16 -4 -27
-17 -34 -43 l-10 -38 -2 45 c-1 32 -4 41 -11 30 -7 -12 -12 -12 -22 -2 -6 6
-36 12 -65 12 -58 0 -75 15 -88 77 l-6 32 55 -1 c54 -1 56 -3 56 -29 0 -24 5
-27 38 -32 46 -5 52 -2 52 29 0 23 3 24 55 24 47 0 55 -3 55 -19 0 -37 139
-43 174 -8 14 15 27 17 55 13 96 -17 208 -24 236 -15 19 5 42 5 63 0 18 -6 63
-7 100 -3 l67 6 95 188 c52 104 96 194 98 201 9 32 -40 -46 -97 -156 -70 -134
-121 -220 -128 -214 -2 3 8 30 22 62 14 32 25 59 25 61 0 3 -11 2 -25 -2 -26
-6 -69 15 -91 44 -14 19 -20 9 -28 -48 -4 -25 -14 -56 -22 -70 l-15 -25 5 30
c3 17 11 54 17 84 16 82 -4 207 -41 254 -29 36 -83 45 -127 21 -37 -19 -64
-63 -83 -133 -8 -30 -14 -40 -20 -31 -4 7 -15 10 -23 7 -12 -5 -14 -20 -10
-82 3 -54 1 -75 -6 -70 -6 3 -11 20 -11 36 0 64 -53 119 -116 119 -24 0 -26 2
-20 31 3 17 6 38 6 45 0 10 16 14 60 14 l60 0 0 35 0 36 -87 -3 -87 -3 -15
-104 c-15 -113 -13 -121 40 -121 14 0 33 -6 44 -13 17 -13 17 -15 -5 -30 -13
-9 -27 -14 -31 -11 -4 2 -33 6 -65 9 -32 3 -59 7 -62 10 -3 2 -12 0 -21 -5
-36 -19 -45 4 -52 132 -4 68 -7 124 -8 126 -5 10 -79 -2 -116 -20 -40 -19 -45
-26 -45 -55 0 -38 -1 -38 45 -16 19 9 37 14 40 11 3 -3 2 -29 -2 -59 l-8 -53
-22 23 c-18 20 -25 22 -37 12 -8 -7 -20 -10 -25 -7 -5 4 -12 2 -16 -4 -3 -5 0
-10 8 -10 18 0 29 -37 15 -46 -6 -4 -26 -10 -44 -14 -38 -9 -41 -4 -46 70 -2
27 -7 35 -23 35 -17 0 -20 -8 -23 -57 l-3 -58 -52 -2 c-29 0 -58 -1 -66 0 -8
0 -26 -4 -40 -10 -36 -14 -87 -14 -83 1 5 26 48 110 87 171 121 189 330 340
555 401 115 32 365 34 480 5 102 -26 233 -83 317 -139 83 -55 223 -198 282
-288 l41 -64 0 303 0 302 -467 -2 c-258 -1 -603 -5 -768 -8z m602 -500 c17
-33 17 -143 1 -138 -6 2 -19 19 -27 36 -9 17 -19 32 -23 32 -12 0 -10 -144 2
-174 6 -16 6 -26 0 -26 -31 0 -41 248 -11 284 19 22 43 17 58 -14z m183 -264
c0 -8 -4 -18 -10 -21 -5 -3 -10 3 -10 14 0 12 5 21 10 21 6 0 10 -6 10 -14z
m-853 -208 c-3 -7 -5 -2 -5 12 0 14 2 19 5 13 2 -7 2 -19 0 -25z m304 -155
c-9 -16 -10 -14 -11 12 0 21 3 26 11 18 8 -8 8 -16 0 -30z m112 -32 c-2 -10 2
-24 10 -32 10 -11 12 -26 7 -59 -6 -37 -9 -41 -15 -23 -4 12 -13 24 -21 27
-19 7 -18 51 2 81 19 30 24 31 17 6z m260 -217 c2 -58 -9 -104 -24 -104 -7 0
-9 11 -5 31 3 17 6 57 6 87 0 71 21 58 23 -14z m182 -69 l25 -65 -35 0 -35 0
0 83 c1 92 5 90 45 -18z m-1285 -16 c0 -5 -4 -9 -10 -9 -5 0 -10 7 -10 16 0 8
5 12 10 9 6 -3 10 -10 10 -16z m510 0 c0 -5 -4 -9 -10 -9 -5 0 -10 7 -10 16 0
8 5 12 10 9 6 -3 10 -10 10 -16z m-477 -60 c5 -3 -24 -6 -65 -6 -64 0 -66 1
-15 4 33 2 57 9 57 15 0 7 3 7 8 2 4 -5 11 -12 15 -15z m-316 -5 c-3 -3 -12
-4 -19 -1 -8 3 -5 6 6 6 11 1 17 -2 13 -5z m86 -1 c-7 -2 -19 -2 -25 0 -7 3
-2 5 12 5 14 0 19 -2 13 -5z m70 0 c-7 -2 -19 -2 -25 0 -7 3 -2 5 12 5 14 0
19 -2 13 -5z m-770 -10 c-13 -2 -35 -2 -50 0 -16 2 -5 4 22 4 28 0 40 -2 28
-4z m95 0 c-10 -2 -26 -2 -35 0 -10 3 -2 5 17 5 19 0 27 -2 18 -5z m2432 -8
c0 -10 -10 -15 -32 -15 l-33 0 25 14 c33 19 40 19 40 1z m-3083 -1 c-3 -3 -12
-4 -19 -1 -8 3 -5 6 6 6 11 1 17 -2 13 -5z m40 0 c-3 -3 -12 -4 -19 -1 -8 3
-5 6 6 6 11 1 17 -2 13 -5z m2963 -10 c0 -2 -12 -4 -26 -4 -14 0 -23 4 -20 9
6 8 46 4 46 -5z m160 6 c0 -5 -12 -10 -26 -10 -14 0 -23 4 -19 10 3 6 15 10
26 10 10 0 19 -4 19 -10z m-2705 -432 c38 -84 70 -156 72 -160 2 -5 -21 -8
-51 -8 -51 0 -56 2 -62 25 -6 24 -9 25 -85 25 -76 0 -80 -1 -89 -25 -9 -22
-15 -25 -64 -25 l-54 0 60 138 c33 75 64 147 69 160 8 20 15 22 72 22 l63 0
69 -152z m-1118 100 l1 -38 -59 0 -59 0 0 -120 0 -120 -50 0 -50 0 0 120 0
120 -55 0 -55 0 0 40 0 40 163 -2 162 -3 2 -37z m528 19 c35 -29 45 -96 21
-132 -13 -20 -15 -30 -6 -40 6 -7 11 -30 11 -51 2 -75 3 -74 -46 -74 -43 0
-45 1 -45 30 0 17 1 32 3 33 1 2 -4 11 -12 20 -10 12 -30 17 -72 17 l-59 0 0
-50 0 -50 -50 0 -50 0 0 160 0 160 139 0 c131 0 142 -1 166 -23z m-1655 -102
c0 -128 4 -135 75 -135 71 0 75 7 75 135 l0 115 50 0 50 0 0 -115 c0 -191 -19
-211 -201 -203 -141 5 -143 8 -147 183 l-4 135 51 0 51 0 0 -115z m481 78 c1
-21 1 -75 1 -120 l0 -83 93 0 93 0 -2 -37 -2 -38 -137 -3 -137 -3 0 48 c0 26
-3 99 -7 161 l-6 112 51 0 52 0 1 -37z"/>
<path d="M3502 5385 c-12 -25 -22 -48 -22 -50 0 -3 20 -5 45 -5 25 0 45 3 45
8 -1 4 -11 26 -23 50 l-23 43 -22 -46z"/>
<path d="M2860 5413 l0 -38 67 5 c68 5 68 5 68 35 l0 30 -67 3 -68 3 0 -38z"/>
<path d="M5924 6888 c-62 -70 -57 -184 8 -207 35 -13 60 -2 84 34 25 39 16
151 -15 176 -31 25 -53 24 -77 -3z m66 -99 c0 -55 -3 -71 -16 -76 -27 -10 -44
25 -44 87 0 63 13 84 42 69 15 -8 18 -22 18 -80z"/>
<path d="M1595 6890 c-3 -5 -4 -18 -1 -28 2 -9 8 -134 11 -277 4 -143 10 -264
15 -268 4 -5 29 -7 56 -5 l49 3 0 120 0 120 54 3 c37 2 57 -1 62 -10 5 -7 9
-61 9 -120 0 -59 3 -109 8 -111 4 -3 31 -2 61 1 l54 5 -7 121 c-3 67 -9 196
-12 289 l-7 167 -58 0 -58 0 6 -115 c3 -63 4 -115 2 -115 -91 -11 -108 -10
-115 2 -5 7 -11 60 -14 118 l-5 105 -52 3 c-28 2 -54 -2 -58 -8z"/>
<path d="M2047 6883 c-4 -3 -7 -26 -7 -50 l0 -43 95 0 c76 0 95 -3 95 -14 0
-8 -34 -113 -75 -233 -41 -120 -75 -219 -75 -221 0 -2 26 -2 57 0 l57 3 83
252 c62 189 81 259 77 282 l-6 31 -148 0 c-80 0 -150 -3 -153 -7z"/>
<path d="M5197 6753 c-11 -10 -8 -43 3 -43 15 0 24 30 13 41 -5 5 -12 6 -16 2z"/>
<path d="M6147 6720 c-32 -38 -41 -78 -28 -128 25 -90 90 -95 125 -9 18 42 19
53 8 95 -21 77 -62 93 -105 42z m63 -20 c17 -32 8 -131 -12 -144 -25 -16 -40
4 -45 61 -8 82 29 135 57 83z"/>
<path d="M3601 6661 c-44 -24 -43 -39 2 -27 19 5 54 44 45 50 -2 2 -23 -9 -47
-23z"/>
<path d="M6030 6560 c-6 -12 -9 -24 -7 -27 3 -2 11 5 17 17 6 12 9 24 7 27 -3
2 -11 -5 -17 -17z"/>
<path d="M5885 6442 c-7 -4 -11 -57 -10 -134 l0 -126 41 -4 c57 -4 74 1 74 23
0 15 -7 19 -36 19 -35 0 -35 1 -32 37 3 33 7 39 33 43 42 7 40 34 -3 38 -31 3
-33 6 -30 34 3 26 8 32 33 35 36 5 39 8 32 28 -7 16 -82 22 -102 7z"/>
<path d="M5603 6303 l2 -138 25 0 c22 0 26 6 34 47 5 28 5 82 0 135 -9 85 -10
88 -36 91 l-26 3 1 -138z"/>
<path d="M2124 6206 c3 -30 9 -61 12 -70 9 -23 34 -20 34 3 0 30 19 35 26 6
10 -42 32 -30 39 23 11 73 11 81 0 84 -5 2 -11 -7 -13 -19 -4 -28 -22 -31 -22
-4 0 34 -20 34 -32 -1 l-12 -33 -8 33 c-14 54 -32 39 -24 -22z"/>
<path d="M1700 6240 c-13 -8 -11 -11 8 -16 28 -8 28 -33 1 -68 -25 -31 -18
-46 22 -46 29 0 42 24 17 33 -10 3 -10 9 0 26 18 30 15 59 -7 71 -24 12 -22
12 -41 0z"/>
<path d="M1773 6238 c2 -7 10 -37 17 -65 19 -72 44 -73 59 -3 6 28 11 58 11
66 0 27 -25 9 -31 -22 -6 -29 -9 -27 -24 21 -2 8 -12 15 -21 15 -9 0 -14 -6
-11 -12z"/>
<path d="M1950 6215 c0 -24 5 -35 15 -35 24 0 18 -37 -7 -45 -31 -9 -5 -19 27
-11 33 9 35 57 3 79 l-23 16 23 7 c32 9 27 24 -8 24 -28 0 -30 -3 -30 -35z"/>
<path d="M2040 6215 c0 -24 5 -35 15 -35 8 0 15 -9 15 -20 0 -13 -7 -20 -20
-20 -11 0 -20 -4 -20 -10 0 -14 43 -13 58 2 19 19 14 54 -10 71 l-23 16 23 7
c32 9 27 24 -8 24 -28 0 -30 -3 -30 -35z"/>
<path d="M1614 6229 c-3 -6 -2 -14 4 -18 6 -3 12 -26 14 -50 2 -25 9 -46 16
-49 9 -3 12 14 12 62 0 59 -2 66 -19 66 -11 0 -23 -5 -27 -11z"/>
<path d="M6362 5890 c-10 -17 -10 -20 3 -20 8 0 15 9 15 20 0 11 -1 20 -3 20
-1 0 -8 -9 -15 -20z"/>
<path d="M6023 5426 c-276 -204 -502 -373 -503 -376 0 -3 17 -6 38 -6 34 -1
68 23 486 358 246 198 450 358 452 356 2 -2 -103 -96 -234 -208 -130 -113
-321 -279 -424 -369 l-188 -164 45 -48 c25 -26 45 -56 44 -66 0 -17 -1 -16
-12 1 -31 50 -92 107 -127 117 -46 14 -144 4 -164 -17 -8 -8 -22 -11 -32 -7
-12 4 -15 3 -10 -5 4 -7 25 -12 47 -12 21 0 39 -4 39 -10 0 -5 -3 -10 -7 -10
-7 -1 -73 -9 -188 -25 -22 -3 -43 -12 -47 -20 -7 -12 -12 -12 -36 1 -31 16
-102 19 -102 4 0 -5 15 -10 34 -10 33 0 63 -19 34 -21 -53 -5 -76 -3 -93 6
-23 11 -179 14 -162 3 8 -5 8 -8 1 -8 -6 0 -14 3 -17 7 -12 11 -77 14 -77 3 0
-5 14 -10 30 -10 37 0 39 -17 3 -26 -18 -5 -30 -2 -38 10 -7 9 -23 16 -36 16
-19 0 -21 -2 -9 -10 13 -8 13 -10 -2 -10 -9 0 -29 5 -43 10 -20 8 -32 6 -47
-4 -20 -14 -20 -14 3 -18 16 -3 7 -7 -26 -12 -27 -4 -61 -13 -74 -19 -13 -7
-55 -12 -93 -12 -48 0 -68 -4 -68 -12 0 -9 16 -13 45 -13 43 0 44 -1 33 -20
-11 -18 -24 -20 -116 -20 -71 0 -101 3 -97 11 4 6 -1 17 -11 24 -22 17 -60 19
-69 5 -3 -5 -22 -10 -42 -10 -27 0 -34 3 -29 15 4 12 -2 13 -37 9 -23 -3 -56
-5 -74 -5 -18 1 -43 -3 -57 -9 -18 -6 -28 -5 -36 6 -15 17 -50 19 -50 1 0 -9
-17 -12 -62 -10 -125 6 -150 9 -156 20 -16 26 -81 41 -190 45 -38 2 -51 6 -48
15 3 7 1 13 -4 13 -6 0 -10 -4 -10 -10 0 -6 -29 -10 -67 -9 -38 0 -62 3 -55 6
18 7 4 23 -20 23 -17 0 -18 -3 -8 -15 10 -12 6 -13 -23 -8 -21 3 -45 -1 -65
-11 -39 -20 -62 -20 -62 -1 0 11 11 15 38 15 27 0 33 3 22 10 -23 15 -70 12
-76 -5 -4 -10 -10 -12 -18 -7 -6 5 -31 12 -56 16 -114 16 -129 16 -161 -2 -37
-21 -56 -52 -20 -33 18 10 21 9 21 -8 0 -25 -29 -35 -49 -17 -9 7 -26 17 -38
20 -19 6 -103 79 -103 90 0 1 10 2 23 1 14 -1 21 -8 19 -19 -2 -9 2 -16 8 -16
5 0 10 5 10 11 0 6 7 9 15 5 22 -8 45 3 39 19 -7 17 32 40 41 25 3 -5 -1 -10
-9 -10 -9 0 -16 -4 -16 -10 0 -5 11 -10 25 -10 19 0 23 4 19 18 -5 15 -4 15
10 -2 10 -13 30 -19 63 -21 26 -1 71 -5 98 -8 l50 -7 -40 14 c-22 8 -50 15
-62 15 -12 1 -26 8 -30 16 -6 10 -33 16 -91 20 -71 5 -81 4 -76 -10 4 -9 1
-15 -7 -15 -11 0 -11 -3 1 -11 12 -9 12 -10 -3 -5 -10 3 -21 6 -23 6 -3 0 -3
4 0 9 3 5 -10 12 -30 16 -33 6 -35 7 -18 20 22 17 15 19 -20 5 -15 -5 -26 -6
-26 -1 0 14 -64 1 -73 -15 -11 -18 -27 -18 -27 1 0 13 -23 15 -146 15 -92 0
-143 -4 -139 -10 3 -5 1 -19 -5 -30 -10 -18 -8 -20 22 -20 23 0 29 -3 19 -9
-7 -5 -11 -13 -7 -19 3 -6 2 -13 -4 -17 -22 -14 -8 -26 26 -23 25 2 39 -2 42
-11 3 -10 -1 -12 -17 -8 -19 5 -21 2 -15 -16 7 -22 6 -22 -14 -3 -21 18 -22
18 -31 -5 -5 -13 -21 -34 -35 -46 -25 -22 -36 -63 -17 -63 6 0 9 -10 9 -22 -4
-58 2 -77 19 -71 11 4 14 3 9 -5 -11 -19 -34 -14 -41 8 -15 47 -41 2 -30 -51
6 -27 8 -28 19 -13 12 16 13 15 18 -3 4 -14 -4 -29 -23 -48 -16 -15 -30 -39
-31 -53 -3 -51 4 -107 14 -117 7 -7 9 4 5 37 -4 27 -2 50 3 53 6 3 11 1 11 -4
6 -50 1 -82 -18 -116 -13 -22 -23 -55 -23 -73 0 -19 -8 -42 -20 -54 -10 -12
-17 -25 -13 -31 3 -5 13 2 22 17 17 28 41 35 41 11 0 -8 -6 -15 -12 -15 -11 0
-58 -61 -58 -75 0 -3 10 -4 23 -2 19 2 22 -3 25 -40 3 -34 -1 -44 -17 -53 -12
-6 -21 -21 -21 -34 0 -21 -23 -41 -41 -38 -6 1 -3 -26 7 -75 3 -16 12 -23 26
-23 17 0 19 -3 10 -12 -17 -17 -15 -57 3 -64 18 -7 20 -31 3 -36 -8 -3 -8 -12
1 -38 8 -23 8 -36 1 -38 -5 -2 -10 -13 -10 -23 0 -11 5 -17 10 -14 6 3 10 2
10 -4 0 -5 -5 -11 -12 -13 -8 -3 -12 -25 -11 -64 1 -32 -3 -64 -9 -71 -7 -9
-7 -13 0 -13 6 0 16 8 21 18 9 15 10 14 10 -8 0 -14 2 -38 5 -54 3 -17 -2 -39
-12 -54 -16 -24 -16 -26 0 -19 21 7 27 -1 32 -42 4 -35 -10 -43 -17 -8 -2 12
-2 6 0 -13 3 -19 4 -56 4 -82 -2 -37 1 -48 13 -48 11 0 16 -10 16 -31 0 -53
33 -92 43 -51 4 15 5 15 6 -2 1 -12 6 -16 16 -12 14 5 15 -8 9 -102 -4 -59
-11 -113 -17 -120 -8 -10 -5 -14 10 -18 15 -4 22 -20 32 -79 7 -42 18 -75 25
-78 9 -3 12 -15 9 -31 -4 -20 -1 -26 12 -26 15 0 15 -1 1 -16 -23 -22 -20 -71
4 -86 22 -14 28 -58 8 -58 -6 0 -3 -7 8 -16 13 -11 15 -17 7 -20 -18 -8 3 -45
20 -38 10 3 12 -5 9 -31 -4 -30 -9 -37 -33 -42 -16 -3 -29 -10 -29 -16 0 -7
-4 -7 -12 1 -9 9 -9 18 0 37 15 33 15 36 0 32 -10 -1 -12 13 -10 53 3 46 -1
62 -23 94 -16 24 -23 45 -20 57 4 13 2 19 -8 19 -18 0 -29 38 -17 59 8 14 9
14 10 -2 0 -10 5 -15 11 -12 7 5 5 13 -5 24 -9 10 -17 31 -18 47 -1 16 -7 32
-13 36 -5 4 -11 31 -11 60 -1 29 -5 85 -9 124 -7 61 -10 71 -25 67 -10 -3 -20
2 -24 12 -3 10 -2 14 5 9 8 -4 8 0 0 15 -6 11 -9 32 -5 46 5 19 2 25 -10 25
-19 0 -21 11 -4 28 10 10 10 17 -1 35 -8 12 -18 37 -22 54 -6 29 -4 33 13 33
14 0 18 5 14 16 -3 9 -6 18 -6 20 0 2 -7 4 -15 4 -8 0 -15 -5 -15 -12 0 -6 -3
-8 -7 -4 -14 13 -8 72 9 98 19 27 15 58 -7 58 -15 0 -27 38 -14 46 5 3 1 17
-9 32 -9 14 -11 23 -5 19 21 -13 17 82 -5 106 -16 19 -16 19 5 13 25 -8 34 15
21 52 -5 15 -4 21 2 17 6 -3 10 -1 10 4 0 6 -9 11 -21 11 -15 0 -19 5 -15 15
3 9 0 18 -8 21 -7 3 -13 18 -13 34 0 31 11 40 20 18 10 -24 7 35 -5 98 -8 46
-16 65 -31 71 -14 7 -17 12 -9 17 7 4 12 2 12 -3 0 -6 4 -11 10 -11 5 0 6 7 3
17 -4 11 -3 14 5 9 17 -10 15 5 -3 32 -14 20 -14 21 0 16 8 -3 15 -2 15 4 0 6
-5 12 -12 14 -8 3 -7 13 4 36 11 22 13 34 6 38 -7 5 -8 2 -3 -7 5 -8 4 -10 0
-6 -12 10 -15 38 -4 31 21 -13 7 38 -16 58 -26 23 -32 38 -15 38 6 0 10 -7 10
-15 0 -8 4 -15 9 -15 5 0 8 18 8 40 -1 46 -26 65 -29 22 -1 -15 -5 27 -8 93
l-6 120 -2 -171 c-1 -124 1 -174 11 -183 10 -11 9 -12 -1 -7 -13 8 -13 -15 3
-1154 2 -162 5 -397 5 -522 0 -125 4 -229 9 -232 7 -5 23 19 34 54 3 8 6 3 6
-12 1 -16 -3 -28 -9 -28 -5 0 -10 -3 -10 -7 0 -5 27 -6 60 -5 33 2 58 8 55 12
-3 5 -1 11 5 15 6 3 13 -1 16 -9 4 -12 20 -16 54 -16 27 0 51 -4 54 -9 6 -9
-98 -21 -192 -21 -60 0 -62 -1 -52 -20 6 -11 16 -17 22 -14 6 4 8 3 5 -3 -4
-6 1 -17 11 -26 24 -22 181 -16 194 7 8 14 34 16 172 16 133 0 166 3 176 15
11 13 4 15 -52 15 -90 0 -163 11 -146 21 10 7 11 11 0 17 -7 5 -10 16 -7 24 7
18 112 31 129 16 6 -4 15 -8 20 -8 6 0 4 5 -4 10 -11 7 -6 10 20 10 23 0 30
-3 22 -9 -10 -6 -8 -10 10 -14 37 -10 396 -8 403 2 3 5 -3 12 -12 14 -10 3 8
5 40 6 l58 1 -24 23 c-21 19 -22 25 -11 46 7 14 10 30 6 35 -3 6 -9 0 -12 -13
-3 -14 -12 -26 -20 -29 -13 -3 -13 -2 -1 6 12 9 12 13 2 26 -10 12 -10 20 -3
29 14 17 1 39 -17 28 -7 -5 -11 -13 -7 -19 3 -6 2 -13 -4 -17 -5 -3 -10 -2
-10 4 0 5 -3 16 -6 25 -4 11 -1 16 10 16 9 0 16 5 16 10 0 6 -7 10 -15 10 -8
0 -15 6 -15 13 0 6 -16 17 -35 23 -19 6 -35 7 -35 3 0 -5 -7 -9 -15 -9 -13 0
-50 -65 -47 -82 1 -5 -3 -8 -8 -8 -6 0 -10 -9 -10 -20 0 -11 -7 -20 -15 -20
-8 0 -15 5 -15 12 0 8 -3 8 -9 3 -6 -6 -11 -32 -13 -60 -2 -32 -7 -50 -15 -49
-7 1 -45 2 -84 3 -38 0 -68 5 -65 9 8 13 11 211 3 218 -13 13 -7 43 11 53 14
8 15 13 5 30 -11 18 -10 21 10 25 12 3 40 10 62 15 l40 10 -38 -5 c-29 -4 -37
-2 -32 7 5 8 22 9 54 4 52 -8 88 -9 256 -5 66 1 125 1 130 0 6 -2 17 -1 25 3
30 11 146 16 160 6 11 -7 5 -8 -19 -4 -19 4 -31 3 -28 -2 3 -5 -11 -8 -31 -6
-20 1 -28 0 -17 -3 30 -9 41 -22 27 -36 -13 -13 3 -52 19 -43 15 10 10 -23
-10 -68 -10 -23 -18 -53 -17 -66 2 -13 -6 -39 -15 -59 -21 -40 -11 -72 21 -72
10 0 21 -3 23 -7 3 -5 28 -8 55 -7 28 0 49 -4 46 -8 -3 -4 3 -8 13 -9 10 0 13
-3 6 -6 -7 -2 -13 -10 -13 -18 0 -13 -39 -24 -94 -26 -24 -1 -26 -3 -8 -6 16
-3 20 -8 13 -16 -7 -9 30 -11 152 -10 89 2 378 4 643 5 395 3 478 1 465 -10
-13 -11 -9 -12 29 -8 25 3 50 6 55 7 6 0 39 -2 75 -5 128 -12 306 -16 285 -7
-16 8 -17 10 -3 10 9 1 20 -4 23 -9 8 -14 642 -12 668 1 22 12 23 30 0 22 -11
-4 -14 -3 -9 6 5 7 14 10 21 7 8 -3 19 2 26 11 11 12 9 18 -11 33 -17 13 -28
16 -37 8 -9 -7 -22 -5 -44 6 -18 9 -42 13 -56 10 -19 -5 -30 1 -54 27 -17 19
-39 35 -50 35 -56 3 -98 58 -56 73 19 7 18 9 -16 20 -33 11 -36 15 -26 33 6
11 7 23 2 27 -4 3 -9 19 -10 34 -1 25 2 28 22 23 38 -10 36 5 -8 48 -164 160
-224 423 -146 641 48 135 163 264 294 330 85 42 247 85 324 85 63 0 191 -41
264 -83 114 -67 217 -195 264 -329 21 -60 26 -92 27 -178 1 -127 -13 -190 -68
-295 -56 -110 -148 -200 -258 -255 -79 -38 -190 -69 -250 -70 -16 0 -28 -2
-28 -4 0 -23 -36 -167 -46 -188 -23 -45 -74 -98 -113 -117 -33 -17 -84 -19
-655 -24 -498 -4 -621 -8 -631 -19 -11 -11 -219 -363 -822 -1393 -91 -154
-174 -288 -185 -298 -14 -12 -16 -18 -7 -19 8 -1 236 -2 506 -3 451 0 492 1
488 16 -9 28 37 33 56 6 17 -22 20 -22 160 -16 79 4 561 7 1072 8 916 1 927 1
927 21 0 12 12 26 30 35 17 9 30 18 30 21 0 3 -5 2 -10 -1 -7 -4 -10 7 -9 32
0 21 -2 82 -6 136 -6 71 -5 97 4 97 6 0 11 12 11 26 0 14 -4 23 -10 19 -5 -3
-10 1 -10 9 0 9 5 16 10 16 6 0 10 5 10 11 0 5 -4 7 -10 4 -6 -4 -10 8 -10 29
0 20 5 36 10 36 6 0 10 12 9 28 l-1 27 -8 -25 c-6 -18 -8 -4 -9 48 -1 42 3 72
9 72 6 0 10 5 10 11 0 5 -4 7 -10 4 -5 -3 -10 3 -10 15 0 12 5 18 10 15 6 -4
10 7 9 27 -1 30 -2 31 -8 8 -4 -14 -10 -20 -13 -15 -9 15 3 65 16 65 6 0 3 5
-7 11 -11 6 -15 18 -13 32 14 68 16 128 5 121 -8 -4 -9 -3 -5 4 4 6 10 30 13
54 11 68 14 913 7 1916 -5 778 -9 922 -20 918 -8 -3 -14 1 -14 9 0 8 6 14 13
12 9 -1 11 144 9 708 -2 609 -5 712 -17 721 -18 13 -20 85 -4 101 6 6 8 21 4
33 -6 19 -9 20 -20 9 -7 -8 -160 -266 -340 -574 -180 -308 -356 -608 -391
-666 -60 -101 -63 -110 -67 -180 -1 -41 -5 14 -7 121 -2 107 -4 208 -3 224 1
21 -2 25 -10 17 -19 -19 -24 -13 -30 31 -4 31 -1 48 10 60 10 11 12 18 5 18
-7 0 -12 -6 -13 -12 -1 -7 -5 5 -10 26 -7 27 -6 42 2 46 6 4 10 10 10 14 -1 3
2 6 7 5 4 0 6 -7 4 -15 -4 -20 0 -16 193 201 88 99 236 266 330 370 278 311
298 336 289 344 -5 4 -235 -159 -511 -363z m507 360 c0 -2 -8 -10 -17 -17 -16
-13 -17 -12 -4 4 13 16 21 21 21 13z m37 -58 c-3 -8 -6 -5 -6 6 -1 11 2 17 5
13 3 -3 4 -12 1 -19z m-956 -741 c-10 -9 -11 -8 -5 6 3 10 9 15 12 12 3 -3 0
-11 -7 -18z m91 -61 c7 -14 6 -22 -7 -35 -9 -9 -15 -11 -14 -6 4 12 -27 71
-35 68 -3 -2 -6 0 -5 5 1 4 6 6 13 4 8 -2 7 0 -1 9 -10 10 -16 9 -29 -2 -16
-13 -16 -12 -3 8 l13 22 29 -27 c16 -15 33 -35 39 -46z m-3022 -56 c0 -5 -4
-10 -10 -10 -5 0 -10 5 -10 10 0 6 5 10 10 10 6 0 10 -4 10 -10z m2250 -4 c0
-20 -16 -36 -36 -36 -26 0 -30 10 -12 28 11 11 48 17 48 8z m-1860 -26 c0 -5
-4 -10 -10 -10 -5 0 -10 5 -10 10 0 6 5 10 10 10 6 0 10 -4 10 -10z m336 -5
c4 -8 17 -15 30 -15 13 0 24 -4 24 -8 0 -4 -45 -8 -100 -8 -93 0 -98 1 -83 18
8 9 34 19 57 21 22 2 47 4 54 5 7 1 15 -5 18 -13z m1349 -6 c22 -6 59 -10 82
-9 23 0 44 -4 48 -10 3 -5 1 -10 -5 -10 -6 0 -8 -4 -5 -10 5 -9 -83 -3 -94 6
-2 2 -10 -1 -17 -7 -9 -7 -19 -7 -33 0 -14 8 -27 8 -46 -1 -19 -9 -28 -9 -37
0 -6 6 -10 13 -7 14 26 17 65 37 69 37 3 1 23 -4 45 -10z m-1870 -49 c4 -6 -2
-7 -16 -1 -13 4 -25 14 -27 20 -3 10 0 10 16 2 12 -6 24 -16 27 -21z m726 20
c31 0 39 -17 14 -26 -23 -9 -62 4 -69 22 -5 12 -2 15 10 10 8 -3 29 -6 45 -6z
m-1101 -10 c0 -5 -7 -10 -16 -10 -8 0 -12 5 -9 10 3 6 10 10 16 10 5 0 9 -4 9
-10z m1535 -16 c12 -5 14 -9 4 -14 -14 -9 -39 -2 -39 11 0 11 12 11 35 3z
m605 -5 c0 -5 -9 -9 -19 -9 -11 0 -22 4 -25 9 -3 5 6 9 19 9 14 0 25 -4 25 -9z
m-2235 -9 c3 -5 1 -10 -4 -10 -6 0 -11 5 -11 10 0 6 2 10 4 10 3 0 8 -4 11
-10z m-38 -21 c-14 -8 -22 -8 -30 0 -8 8 -3 11 19 11 25 -1 27 -2 11 -11z
m-37 -19 c25 -22 20 -26 -11 -10 -10 6 -19 15 -19 20 0 14 4 13 30 -10z m1180
10 c0 -5 -7 -10 -15 -10 -8 0 -15 5 -15 10 0 6 7 10 15 10 8 0 15 -4 15 -10z
m1004 1 c3 -5 -1 -12 -10 -15 -22 -9 -24 -8 -24 9 0 16 25 21 34 6z m-1890
-108 c-7 -48 -17 -115 -21 -148 -5 -34 -12 -58 -18 -55 -12 6 -11 78 4 147 6
29 8 60 4 68 -8 22 -49 15 -45 -7 2 -11 -3 -18 -12 -18 -20 0 -31 20 -16 30 6
4 10 10 8 14 -1 3 12 15 30 26 17 11 32 15 32 10 0 -19 18 -10 23 11 3 12 10
19 15 15 5 -3 3 -42 -4 -93z m333 47 c2 -11 -2 -20 -7 -20 -6 0 -10 12 -10 27
0 29 12 24 17 -7z m1143 26 c0 -2 -7 -6 -15 -10 -8 -3 -15 -1 -15 4 0 6 7 10
15 10 8 0 15 -2 15 -4z m-1280 -27 c0 -5 -9 -9 -20 -9 -22 0 -27 16 -7 23 15
5 27 -1 27 -14z m1140 -20 c0 -6 -4 -7 -10 -4 -5 3 -10 11 -10 16 0 6 5 7 10
4 6 -3 10 -11 10 -16z m-1090 -4 c-7 -8 -17 -15 -23 -15 -6 0 -2 7 9 15 25 19
30 19 14 0z m1747 -1 c-3 -3 -12 -4 -19 -1 -8 3 -5 6 6 6 11 1 17 -2 13 -5z
m-2037 -14 c0 -5 -7 -7 -15 -4 -8 4 -15 8 -15 10 0 2 7 4 15 4 8 0 15 -4 15
-10z m1947 -16 c-3 -3 -12 -4 -19 -1 -8 3 -5 6 6 6 11 1 17 -2 13 -5z m-1710
-46 c-3 -8 -6 -5 -6 6 -1 11 2 17 5 13 3 -3 4 -12 1 -19z m-290 -4 c-3 -3 -12
-4 -19 -1 -8 3 -5 6 6 6 11 1 17 -2 13 -5z m108 -24 c3 -5 1 -10 -4 -10 -6 0
-11 5 -11 10 0 6 2 10 4 10 3 0 8 -4 11 -10z m91 -19 c11 9 14 7 14 -10 0 -24
-4 -25 -31 -10 -11 5 -16 15 -12 22 5 8 8 8 11 -1 3 -10 7 -10 18 -1z m28 -74
c4 4 4 0 0 -10 -5 -13 -1 -17 18 -15 25 2 73 -27 82 -49 3 -7 -1 -13 -9 -13
-8 0 -15 6 -15 14 0 7 -9 16 -20 19 -12 3 -20 0 -20 -8 0 -17 -47 -48 -55 -36
-3 5 -1 12 5 16 17 10 11 25 -10 25 -11 0 -20 4 -20 10 0 5 7 7 16 3 14 -5 15
-3 6 13 -6 10 -20 19 -33 19 -12 0 -24 5 -26 12 -6 17 39 21 58 6 9 -7 19 -10
23 -6z m-124 -30 c0 -5 -4 -5 -10 -2 -5 3 -10 14 -10 23 0 15 2 15 10 2 5 -8
10 -19 10 -23z m1310 29 c0 -3 -4 -8 -10 -11 -5 -3 -10 -1 -10 4 0 6 5 11 10
11 6 0 10 -2 10 -4z m-1410 -26 c0 -5 -7 -10 -15 -10 -8 0 -15 5 -15 10 0 6 7
10 15 10 8 0 15 -4 15 -10z m50 -80 c0 -5 -5 -10 -11 -10 -5 0 -7 5 -4 10 3 6
8 10 11 10 2 0 4 -4 4 -10z m304 -58 c-8 -2 -14 -7 -14 -12 0 -5 6 -7 14 -4
21 8 30 -14 12 -31 -19 -20 -42 -19 -50 1 -4 11 -13 14 -31 10 -14 -4 -25 -2
-25 4 0 5 5 10 10 10 6 0 10 6 10 14 0 8 14 17 30 21 18 4 30 13 30 23 1 12 5
10 15 -8 12 -22 12 -25 -1 -28z m1950 27 c-3 -6 6 -19 20 -30 14 -11 26 -28
26 -37 0 -8 9 -26 21 -38 24 -26 18 -44 -15 -44 -13 0 -29 -7 -37 -16 -10 -12
-23 -14 -55 -9 -26 3 -45 2 -49 -5 -3 -6 3 -10 15 -10 28 0 97 -33 82 -38 -7
-2 -12 -8 -12 -13 0 -6 4 -8 9 -5 5 3 12 -1 15 -9 3 -8 9 -14 13 -13 4 1 18
-1 29 -5 17 -6 23 -19 27 -59 5 -36 3 -55 -6 -60 -15 -9 -216 -10 -309 -1
l-68 6 0 39 c0 21 4 46 9 56 6 9 13 34 16 55 4 26 14 43 33 55 74 47 110 80
125 115 12 29 26 42 56 54 22 9 38 20 35 24 -3 5 2 6 10 3 9 -3 13 -10 10 -15z
m-1844 -9 c0 -5 -7 -10 -16 -10 -8 0 -12 5 -9 10 3 6 10 10 16 10 5 0 9 -4 9
-10z m143 -32 c18 -9 32 -27 41 -55 17 -51 38 -74 90 -101 43 -23 76 -55 76
-74 0 -10 2 -10 8 -1 9 14 26 5 35 -19 7 -21 -3 -24 -21 -6 -9 9 -12 9 -12 1
0 -7 9 -18 19 -25 11 -8 25 -26 32 -41 7 -17 20 -27 33 -27 20 0 20 0 -2 -22
-22 -23 -82 -32 -82 -14 0 22 -12 -6 -17 -38 -3 -23 -1 -36 7 -36 6 0 10 -10
8 -22 -2 -18 3 -24 20 -26 20 -3 21 -6 10 -20 -12 -16 -11 -16 12 -1 34 22 38
49 8 49 -22 1 -22 1 -4 15 10 7 15 18 12 23 -3 5 3 17 14 27 18 16 20 16 35 1
9 -9 23 -16 31 -16 8 0 12 -5 9 -10 -5 -7 -11 -8 -18 -1 -8 6 -18 5 -30 -3
-24 -18 -21 -26 8 -26 31 0 33 -22 4 -51 -12 -12 -17 -24 -12 -28 16 -10 23
-41 10 -42 -7 0 -3 -4 8 -8 29 -12 38 -3 32 35 -3 20 -2 34 4 34 6 0 8 8 5 18
-3 9 -1 24 4 32 8 13 10 12 10 -2 0 -11 8 -18 18 -18 10 0 24 -6 30 -12 10
-10 15 -10 20 -1 4 6 20 15 35 18 22 6 27 4 27 -11 0 -11 -7 -32 -15 -48 -18
-35 -18 -36 0 -36 8 0 15 -3 15 -7 0 -5 3 -18 6 -30 5 -19 2 -23 -17 -23 -12
0 -30 6 -38 14 -19 16 -109 28 -117 15 -2 -5 -20 -8 -38 -7 -18 1 -38 -2 -45
-6 -15 -10 -3 -29 15 -22 8 3 14 1 14 -5 0 -5 10 -7 23 -4 16 5 31 -2 52 -23
16 -16 35 -28 41 -25 8 3 11 -3 7 -16 -4 -16 -11 -20 -26 -15 -17 5 -19 3 -14
-15 4 -17 0 -24 -18 -31 -26 -10 -65 -9 -65 1 0 4 -10 9 -23 11 -19 4 -26 -3
-44 -41 -12 -25 -24 -55 -28 -66 -6 -19 -7 -19 -16 -2 -6 9 -14 15 -19 12 -10
-6 -25 149 -16 164 4 6 2 20 -4 31 -8 16 -8 20 3 20 11 0 16 26 21 115 4 63 5
119 1 125 -3 5 -2 10 4 10 7 0 7 8 1 24 -5 13 -7 26 -4 29 2 2 -2 10 -11 17
-14 11 -15 7 -11 -34 l5 -48 -254 4 c-139 2 -257 7 -261 11 -5 4 -2 12 6 17
13 9 13 10 0 10 -12 1 -12 3 2 14 16 12 16 14 1 36 -16 22 -15 24 15 51 18 16
32 34 32 40 0 6 5 9 12 7 15 -5 48 22 48 39 0 7 9 21 20 30 11 10 20 23 20 30
0 7 5 13 10 13 6 0 10 5 10 11 0 6 -7 9 -15 5 -8 -3 -15 -1 -15 4 0 9 14 14
33 11 4 -1 12 11 17 25 9 22 13 24 25 14 8 -7 16 -10 16 -6 1 3 3 11 4 16 1 6
3 14 4 18 1 12 41 30 67 31 11 1 32 -5 47 -11z m-369 -23 c3 -8 1 -15 -4 -15
-6 0 -10 -7 -10 -15 0 -8 -5 -15 -11 -15 -6 0 -9 9 -6 20 3 13 0 20 -9 20 -8
0 -14 5 -14 10 0 16 47 12 54 -5z m186 -25 c0 -5 -4 -10 -10 -10 -5 0 -10 5
-10 10 0 6 5 10 10 10 6 0 10 -4 10 -10z m-933 -72 c-3 -8 -6 -5 -6 6 -1 11 2
17 5 13 3 -3 4 -12 1 -19z m3743 -44 c0 -8 -5 -12 -10 -9 -6 4 -8 11 -5 16 9
14 15 11 15 -7z m-3722 -50 c-4 -3 -12 5 -18 18 -12 22 -12 22 6 6 10 -10 15
-20 12 -24z m1582 -48 c0 -3 -4 -8 -10 -11 -5 -3 -10 -1 -10 4 0 6 5 11 10 11
6 0 10 -2 10 -4z m1450 -47 c0 -5 5 -7 10 -4 6 4 10 -5 10 -19 0 -23 -4 -26
-34 -26 -29 0 -33 3 -33 25 0 13 3 22 8 19 5 -3 9 0 9 5 0 6 7 11 15 11 8 0
15 -5 15 -11z m-1690 -124 c-7 -8 -18 -15 -24 -15 -6 0 -2 7 8 15 25 19 32 19
16 0z m280 5 c0 -5 -4 -10 -10 -10 -5 0 -10 5 -10 10 0 6 5 10 10 10 6 0 10
-4 10 -10z m420 -19 c0 -6 -4 -13 -10 -16 -5 -3 -10 1 -10 9 0 9 5 16 10 16 6
0 10 -4 10 -9z m-856 -311 c-6 -200 -30 -220 -40 -33 -4 59 -11 114 -17 121
-6 7 -6 12 -1 11 23 -4 35 2 33 19 -1 9 0 53 1 97 l2 80 12 -105 c7 -58 11
-143 10 -190z m874 182 c5 -17 -13 -15 -27 2 -10 12 -9 14 5 12 10 -2 20 -8
22 -14z m-970 -19 c2 -9 -11 -13 -47 -13 -28 0 -54 0 -58 -1 -4 0 -9 4 -11 10
-2 5 14 12 35 14 56 6 76 3 81 -10z m-180 -73 c2 -40 -1 -70 -6 -70 -11 0 -19
68 -14 113 6 51 17 27 20 -43z m201 -55 c-1 -51 -3 -63 -9 -45 -5 15 -6 -4 -3
-47 4 -47 2 -73 -4 -73 -15 0 -21 31 -29 131 -4 46 -7 89 -8 94 0 6 7 9 17 7
11 -2 17 4 17 15 0 15 2 16 10 3 5 -8 9 -46 9 -85z m-300 -12 c-1 -100 -6 -93
-11 15 -2 39 0 72 4 72 4 0 7 -39 7 -87z m67 53 c1 -12 5 -58 8 -101 3 -43 8
-81 12 -84 3 -3 4 22 2 57 -1 34 0 62 5 62 4 0 8 -9 8 -20 1 -11 3 -24 4 -30
1 -5 3 -19 4 -30 1 -12 8 -20 20 -20 10 0 35 -13 56 -30 21 -16 34 -30 30 -30
-5 0 -18 8 -29 19 -26 22 -79 34 -94 19 -15 -15 -32 -1 -33 30 -1 24 -3 23 -9
-8 l-7 -35 -2 38 c0 20 4 37 9 37 15 0 12 26 -5 40 -17 14 -22 115 -5 105 6
-3 10 -1 10 6 0 21 13 0 16 -25z m709 14 c-3 -5 -10 -10 -16 -10 -5 0 -9 5 -9
10 0 6 7 10 16 10 8 0 12 -4 9 -10z m45 -5 c0 -8 -7 -15 -15 -15 -16 0 -20 12
-8 23 11 12 23 8 23 -8z m215 -4 c3 -5 1 -12 -5 -16 -5 -3 -10 1 -10 9 0 18 6
21 15 7z m-835 -32 c0 -17 -4 -28 -10 -24 -5 3 -10 17 -10 31 0 13 5 24 10 24
6 0 10 -14 10 -31z m220 6 c0 -2 -7 -5 -15 -9 -9 -3 -15 0 -15 9 0 9 6 12 15
9 8 -4 15 -7 15 -9z m-1119 -58 c-8 -8 -11 -3 -11 19 1 25 2 27 11 11 8 -14 8
-22 0 -30z m1569 27 c0 -8 -4 -12 -10 -9 -5 3 -10 10 -10 16 0 5 5 9 10 9 6 0
10 -7 10 -16z m-30 -29 c-7 -9 -15 -13 -17 -11 -7 7 7 26 19 26 6 0 6 -6 -2
-15z m-118 -20 c0 -5 -5 -11 -11 -13 -6 -2 -11 4 -11 13 0 9 5 15 11 13 6 -2
11 -8 11 -13z m45 9 c-3 -3 -12 -4 -19 -1 -8 3 -5 6 6 6 11 1 17 -2 13 -5z
m-757 -63 c0 -6 -4 -13 -10 -16 -5 -3 -10 1 -10 9 0 9 5 16 10 16 6 0 10 -4
10 -9z m577 -57 c-3 -3 -12 -4 -19 -1 -8 3 -5 6 6 6 11 1 17 -2 13 -5z m-409
-81 c1 -10 3 -25 4 -33 3 -36 -3 -90 -11 -90 -11 0 -20 66 -14 108 6 34 17 43
21 15z m422 -63 c0 -5 -2 -10 -4 -10 -3 0 -8 5 -11 10 -3 6 -1 10 4 10 6 0 11
-4 11 -10z m1323 -10 c3 -11 1 -20 -4 -20 -5 0 -9 9 -9 20 0 11 2 20 4 20 2 0
6 -9 9 -20z m-1633 -2 c0 -7 -11 -31 -25 -53 -14 -22 -28 -48 -31 -57 -4 -10
-10 -18 -15 -18 -12 0 -12 17 0 24 13 8 51 84 51 101 0 8 5 15 10 15 6 0 10
-6 10 -12z m-940 -29 c0 -5 -4 -9 -10 -9 -5 0 -10 7 -10 16 0 8 5 12 10 9 6
-3 10 -10 10 -16z m750 7 c0 -11 -19 -15 -25 -6 -3 5 1 10 9 10 9 0 16 -2 16
-4z m1850 -76 c-19 -13 -30 -13 -30 0 0 6 10 10 23 10 18 0 19 -2 7 -10z m27
-26 c-3 -3 -12 -4 -19 -1 -8 3 -5 6 6 6 11 1 17 -2 13 -5z m-107 -31 c0 -22
-2 -25 -10 -13 -13 20 -13 40 0 40 6 0 10 -12 10 -27z m-2604 -14 c3 -6 1 -16
-5 -22 -9 -9 -14 -8 -21 3 -5 8 -10 18 -10 23 0 11 28 8 36 -4z m827 -9 c-4
-15 0 -20 16 -20 11 0 21 -4 21 -10 0 -5 -13 -10 -30 -10 -25 0 -30 4 -30 23
0 24 7 37 21 37 4 0 5 -9 2 -20z m139 -5 c7 -32 -4 -32 -19 0 -9 20 -8 25 2
25 7 0 15 -11 17 -25z m1608 15 c0 -5 -7 -10 -15 -10 -8 0 -15 5 -15 10 0 6 7
10 15 10 8 0 15 -4 15 -10z m105 0 c4 -6 -5 -10 -19 -10 -14 0 -26 5 -26 10 0
6 9 10 19 10 11 0 23 -4 26 -10z m-1652 -20 c3 -11 1 -23 -4 -26 -5 -3 -9 4
-9 16 0 13 -4 19 -12 14 -7 -4 -8 -3 -4 4 11 18 23 14 29 -8z m-238 0 c-3 -5
-10 -10 -16 -10 -5 0 -9 5 -9 10 0 6 7 10 16 10 8 0 12 -4 9 -10z m1882 -36
c-3 -3 -12 -4 -19 -1 -8 3 -5 6 6 6 11 1 17 -2 13 -5z m-1862 -34 c3 -5 1 -10
-4 -10 -6 0 -11 5 -11 10 0 6 2 10 4 10 3 0 8 -4 11 -10z m-45 -4 c0 -3 -4 -8
-10 -11 -5 -3 -10 -1 -10 4 0 6 5 11 10 11 6 0 10 -2 10 -4z m1880 -12 c0 -2
-7 -4 -15 -4 -8 0 -15 4 -15 10 0 5 7 7 15 4 8 -4 15 -8 15 -10z m95 7 c-3 -5
-19 -8 -36 -6 -48 6 -48 15 0 15 23 0 40 -4 36 -9z m-1757 -17 c31 -9 28 -25
-5 -23 -16 1 -32 1 -38 -1 -23 -6 -55 1 -55 11 0 7 10 9 24 5 14 -3 28 -2 31
4 7 12 12 12 43 4z m1624 -36 c-6 -6 -15 -8 -19 -4 -4 4 -1 11 7 16 19 12 27
3 12 -12z m-2552 6 c0 -3 -7 -12 -15 -20 -12 -13 -15 -13 -15 -1 0 7 3 17 7
20 8 8 23 9 23 1z m2665 -4 c3 -5 -1 -10 -9 -10 -9 0 -16 5 -16 10 0 6 4 10 9
10 6 0 13 -4 16 -10z m-1695 -20 c0 -5 -7 -7 -15 -4 -8 4 -15 8 -15 10 0 2 7
4 15 4 8 0 15 -4 15 -10z m-257 -34 c3 -8 -2 -21 -11 -29 -23 -20 -72 -33 -72
-18 0 6 5 11 12 11 6 0 9 3 5 6 -9 9 26 44 44 44 9 0 19 -6 22 -14z m67 -11
c-7 -9 -15 -13 -17 -11 -7 7 7 26 19 26 6 0 6 -6 -2 -15z m95 6 c3 -5 1 -12
-5 -16 -5 -3 -10 1 -10 9 0 18 6 21 15 7z m-1008 -53 c-3 -7 -5 -2 -5 12 0 14
2 19 5 13 2 -7 2 -19 0 -25z m5 -40 c-7 -7 -12 -8 -12 -2 0 14 12 26 19 19 2
-3 -1 -11 -7 -17z m18 -59 c-10 -17 -14 -18 -27 -7 -14 11 -13 13 8 19 13 4
25 7 27 8 1 1 -2 -8 -8 -20z m2540 -3 c0 -3 -4 -8 -10 -11 -5 -3 -10 -1 -10 4
0 6 5 11 10 11 6 0 10 -2 10 -4z m65 -6 c-3 -5 -13 -10 -21 -10 -8 0 -14 5
-14 10 0 6 9 10 21 10 11 0 17 -4 14 -10z m45 0 c12 -8 11 -10 -7 -10 -13 0
-23 5 -23 10 0 13 11 13 30 0z m330 1 c0 -5 -9 -11 -20 -14 -11 -3 -20 -1 -20
3 0 5 8 11 18 13 9 3 18 5 20 6 1 0 2 -3 2 -8z m-67 -8 c-7 -2 -21 -2 -30 0
-10 3 -4 5 12 5 17 0 24 -2 18 -5z m-2914 -40 c-10 -45 -11 -58 -3 -50 7 6 44
-29 44 -42 0 -5 7 -14 15 -21 9 -7 14 -19 11 -26 -2 -6 4 -14 15 -17 10 -3 19
-10 19 -16 0 -6 -7 -8 -15 -5 -17 7 -20 -7 -5 -22 11 -11 2 -74 -10 -74 -10 0
-20 37 -20 73 0 31 0 31 -35 15 -19 -8 -28 -9 -37 0 -8 8 -5 9 13 6 17 -4 20
-3 11 4 -8 5 -13 12 -12 16 1 4 0 10 -3 14 -2 4 -2 1 0 -6 1 -7 -1 -11 -5 -8
-5 3 -9 42 -10 88 -1 61 1 79 9 68 9 -12 10 -11 6 7 -3 12 0 24 7 27 6 2 12 5
12 5 1 1 -2 -16 -7 -36z m2444 30 c-7 -2 -21 -2 -30 0 -10 3 -4 5 12 5 17 0
24 -2 18 -5z m-1786 -35 c-3 -8 -6 -5 -6 6 -1 11 2 17 5 13 3 -3 4 -12 1 -19z
m2403 2 c0 -6 -11 -8 -27 -4 -40 10 -41 14 -5 14 18 0 32 -5 32 -10z m185 -16
c20 -26 19 -43 -2 -40 -10 2 -18 7 -18 12 -1 5 -6 19 -13 31 -10 18 -9 21 3
19 8 -1 22 -11 30 -22z m-690 3 c22 0 90 1 150 3 158 4 215 2 215 -11 0 -5 -8
-9 -17 -8 -10 2 -34 -1 -53 -6 l-35 -9 44 -6 c39 -4 45 -8 48 -31 5 -39 -22
-46 -197 -53 -132 -6 -150 -3 -151 27 l0 22 -11 -22 c-6 -13 -24 -25 -42 -28
-17 -4 -40 -9 -51 -11 -16 -4 -17 -3 -5 5 10 7 11 11 3 11 -7 0 -13 7 -13 15
0 8 6 15 13 15 7 1 5 6 -6 14 -10 8 -14 17 -9 20 6 3 13 -1 16 -10 4 -11 15
-15 36 -12 16 3 31 1 32 -3 2 -5 14 1 28 11 l25 20 -52 0 c-48 0 -78 13 -52
22 8 3 5 10 -7 22 -17 18 -17 18 17 10 19 -4 52 -8 74 -7z m557 -62 c6 -30
-16 -34 -32 -6 -14 27 -13 31 9 31 12 0 20 -9 23 -25z m231 -53 c-1 -2 -10 1
-21 7 -14 8 -21 8 -24 0 -5 -16 -32 -1 -44 25 -8 18 -8 25 4 32 10 7 24 0 51
-26 20 -19 35 -36 34 -38z m-413 58 c0 -5 -5 -10 -11 -10 -5 0 -7 5 -4 10 3 6
8 10 11 10 2 0 4 -4 4 -10z m355 -120 c-3 -5 -10 -10 -16 -10 -5 0 -9 5 -9 10
0 6 7 10 16 10 8 0 12 -4 9 -10z m-3162 -68 c-4 -26 -8 -30 -19 -21 -16 13
-19 39 -4 39 6 0 9 3 9 8 -3 18 1 26 10 17 5 -6 7 -25 4 -43z m211 22 c11 -28
6 -39 -9 -20 -8 11 -15 23 -15 28 0 14 18 9 24 -8z m636 -54 c0 -5 -4 -10 -10
-10 -5 0 -10 5 -10 10 0 6 5 10 10 10 6 0 10 -4 10 -10z m-850 -35 c14 -16 10
-18 -14 -9 -9 3 -16 10 -16 15 0 14 16 11 30 -6z m647 -7 c-3 -8 -6 -5 -6 6
-1 11 2 17 5 13 3 -3 4 -12 1 -19z m-302 -8 c3 -5 -1 -10 -10 -10 -9 0 -13 5
-10 10 3 6 8 10 10 10 2 0 7 -4 10 -10z m-360 -19 c3 -5 1 -12 -5 -16 -5 -3
-10 1 -10 9 0 18 6 21 15 7z m725 -20 c20 -6 15 -9 -27 -12 -40 -3 -49 -1 -41
9 11 13 30 14 68 3z m1845 -1 c3 -6 -4 -10 -17 -10 -18 0 -20 2 -8 10 19 12
18 12 25 0z m259 -28 c16 -27 -66 -42 -174 -32 -35 3 -34 3 10 10 36 6 27 7
-45 8 -52 0 -79 -3 -65 -7 22 -6 20 -8 -17 -13 -51 -7 -125 1 -117 13 3 5 -2
6 -10 3 -9 -3 -16 -1 -16 4 0 6 10 13 23 15 41 8 406 7 411 -1z m-647 -8 c-3
-3 -12 -4 -19 -1 -8 3 -5 6 6 6 11 1 17 -2 13 -5z m88 -4 c-3 -5 -17 -10 -31
-10 -13 0 -24 5 -24 10 0 6 14 10 31 10 17 0 28 -4 24 -10z m288 -67 c-7 -2
-19 -2 -25 0 -7 3 -2 5 12 5 14 0 19 -2 13 -5z m117 -3 c0 -5 -7 -10 -15 -10
-8 0 -15 5 -15 10 0 6 7 10 15 10 8 0 15 -4 15 -10z m37 4 c-3 -3 -12 -4 -19
-1 -8 3 -5 6 6 6 11 1 17 -2 13 -5z m586 -1 c-67 -2 -179 -2 -250 0 -70 1 -15
3 122 3 138 0 195 -2 128 -3z m190 0 c-7 -2 -21 -2 -30 0 -10 3 -4 5 12 5 17
0 24 -2 18 -5z m-715 -20 c-15 -2 -42 -2 -60 0 -18 2 -6 4 27 4 33 0 48 -2 33
-4z m1242 -492 c0 -29 -1 -29 -82 -41 -46 -6 -285 -42 -533 -79 -247 -38 -454
-65 -458 -61 -5 4 4 11 20 14 15 3 197 37 403 76 206 39 427 81 490 94 157 33
160 33 160 -3z m-1630 -41 c118 -33 275 -76 348 -97 73 -20 129 -40 125 -44
-4 -4 -35 -1 -68 7 -33 8 -175 39 -315 70 -346 75 -330 70 -330 99 0 14 6 25
13 25 6 0 109 -27 227 -60z m1630 -30 c0 -27 -3 -30 -32 -32 l-33 -1 33 -4
c29 -4 33 -8 30 -31 l-3 -27 -140 -12 c-214 -19 -879 -73 -890 -73 -6 0 -6 3
0 9 6 5 224 35 485 67 261 32 468 60 460 62 -15 2 -859 -92 -926 -104 -18 -3
-35 -1 -38 5 -4 6 -2 11 5 11 13 0 369 55 764 119 304 49 285 48 285 11z
m-1609 -35 c134 -31 288 -65 342 -77 53 -11 97 -25 97 -29 0 -12 12 -14 -360
49 l-335 57 -3 28 c-2 15 1 27 6 27 5 0 119 -25 253 -55z m82 -70 c172 -31
319 -58 327 -62 42 -16 -33 -11 -306 22 -389 45 -364 41 -364 70 0 16 6 25 15
25 9 0 156 -25 328 -55z m1525 -32 l-3 -28 -380 -16 c-209 -9 -437 -20 -507
-24 -71 -3 -128 -2 -128 2 0 5 177 24 393 42 215 19 424 37 462 41 39 4 92 8
118 9 47 1 48 0 45 -26z m-1515 -20 c169 -20 307 -41 307 -46 0 -6 -41 -7 -97
-3 -54 4 -127 8 -163 11 -36 2 -110 7 -165 10 -222 12 -235 14 -235 41 0 18 6
24 23 24 12 0 160 -16 330 -37z m5 -49 c155 -10 282 -21 282 -26 0 -4 -144 -8
-320 -8 l-320 0 0 23 c0 32 8 38 44 33 17 -3 158 -13 314 -22z m1510 -1 l-3
-28 -497 -3 c-330 -1 -498 1 -498 8 0 6 28 10 63 11 34 0 213 9 397 18 184 10
381 19 438 20 l103 1 -3 -27z m-1348 -229 l0 -174 -65 0 -64 0 -3 81 -3 82
-26 -79 -27 -79 -54 -3 -54 -3 -32 88 -31 88 0 -87 -1 -88 -65 0 -65 0 0 170
0 171 87 -3 88 -3 32 -90 c18 -49 34 -94 36 -100 2 -5 16 28 31 75 42 127 39
125 135 127 l81 2 0 -175z m870 1 l0 -175 -75 0 -75 0 0 61 c0 57 -1 60 -22
57 -16 -2 -34 -22 -57 -60 l-34 -58 -78 0 c-44 0 -79 3 -79 6 0 4 20 35 45 70
41 57 43 63 25 69 -26 8 -70 62 -70 86 0 37 28 75 67 92 55 23 64 25 216 26
l137 1 0 -175z m170 124 l0 -52 54 52 55 51 83 0 83 -1 -73 -67 -73 -67 81
-99 c44 -55 80 -103 80 -108 0 -4 -37 -8 -82 -8 l-83 0 -49 66 c-27 35 -54 63
-60 61 -6 -2 -12 -31 -14 -65 l-3 -62 -74 0 -75 0 0 175 0 175 75 0 75 0 0
-51z m-657 -165 c42 -96 77 -180 77 -185 0 -5 -32 -9 -70 -9 -66 0 -71 2 -80
25 -9 23 -14 25 -78 25 -64 0 -70 -2 -80 -25 -11 -23 -17 -25 -83 -25 -64 0
-70 2 -64 18 3 9 38 92 77 185 l71 167 77 0 76 0 77 -176z m-229 -313 c13 -11
19 -11 32 0 16 13 44 21 44 13 0 -3 -7 -16 -16 -29 -21 -33 -4 -58 33 -49 22
6 24 4 21 -21 -3 -30 -28 -48 -28 -21 0 9 -8 16 -17 16 -9 0 -25 7 -35 17 -17
15 -19 15 -36 0 -13 -12 -37 -17 -85 -17 l-67 0 0 35 c0 28 -4 35 -20 35 -16
0 -20 -7 -20 -35 0 -24 -5 -35 -15 -35 -10 0 -15 11 -15 35 0 28 -4 35 -20 35
-11 0 -20 7 -20 15 0 11 20 15 98 17 141 4 148 4 166 -11z m203 -1 c5 -20 5
-20 30 0 22 17 40 20 141 19 64 -1 122 -3 129 -6 20 -8 17 -89 -3 -97 -52 -20
-104 2 -104 44 0 46 -28 39 -32 -7 -4 -52 -32 -52 -36 -2 -2 30 -8 38 -27 41
-14 3 -30 -2 -39 -11 -14 -14 -13 -18 11 -43 22 -24 24 -28 9 -28 -10 0 -31 9
-47 21 l-29 20 0 -20 c0 -12 -7 -21 -15 -21 -12 0 -15 13 -15 55 0 55 16 76
27 35z m457 14 c11 -4 16 -19 16 -49 0 -48 -9 -55 -71 -55 l-39 0 0 55 0 55
39 0 c22 0 46 -3 55 -6z m226 -16 l17 -22 12 22 c11 20 20 22 95 22 88 0 102
-8 90 -47 -3 -10 7 -4 23 15 16 17 39 32 51 32 20 0 22 -5 22 -49 0 -28 -5
-53 -11 -56 -15 -10 -21 0 -21 30 0 32 -4 31 -34 -4 -33 -40 -58 -35 -62 13
-4 48 -35 47 -42 -2 -7 -45 -24 -45 -28 -1 -3 30 -8 38 -27 42 -17 3 -26 -1
-30 -13 -7 -24 -51 -70 -66 -70 -7 0 -9 9 -6 23 4 13 -1 31 -12 46 l-19 25 2
-45 c1 -33 -3 -44 -14 -44 -10 0 -16 12 -18 38 -2 28 -8 37 -22 37 -14 0 -20
-9 -22 -37 -4 -53 -32 -52 -36 1 -5 62 0 66 74 66 56 0 69 -3 84 -22z m-1440
-23 c0 -19 5 -35 10 -35 6 0 10 16 10 35 l0 35 50 0 c41 0 50 -3 50 -17 1 -17
1 -17 11 0 7 12 23 17 58 17 l49 0 4 -39 c2 -22 2 -45 0 -50 -6 -17 -32 -13
-32 4 0 8 -6 15 -14 15 -7 0 -19 -7 -26 -15 -7 -8 -28 -15 -46 -15 -32 0 -34
2 -34 35 0 28 -4 35 -20 35 -16 0 -20 -7 -20 -31 0 -22 -5 -32 -20 -36 -11 -3
-20 -9 -20 -14 0 -5 -7 -9 -15 -9 -8 0 -15 5 -15 10 0 6 -16 10 -35 10 -19 0
-35 -4 -35 -10 0 -5 -7 -10 -15 -10 -17 0 -21 45 -5 55 6 3 10 19 10 36 0 28
1 29 50 29 l50 0 0 -35z m1155 -355 c-3 -5 -10 -10 -16 -10 -5 0 -9 5 -9 10 0
6 7 10 16 10 8 0 12 -4 9 -10z"/>
<path d="M2840 4270 c0 -5 5 -10 10 -10 6 0 10 5 10 10 0 6 -4 10 -10 10 -5 0
-10 -4 -10 -10z"/>
<path d="M3362 3700 c0 -14 2 -19 5 -12 2 6 2 18 0 25 -3 6 -5 1 -5 -13z"/>
<path d="M3580 3709 c0 -5 9 -9 20 -9 11 0 20 4 20 8 0 4 -9 8 -20 9 -11 1
-20 -2 -20 -8z"/>
<path d="M3523 3690 c1 -11 2 -20 4 -20 1 0 7 9 13 20 8 16 8 20 -4 20 -9 0
-14 -8 -13 -20z"/>
<path d="M3484 3553 c4 -25 2 -33 -9 -33 -8 0 -15 5 -15 12 0 6 -3 9 -6 5 -4
-3 -13 0 -21 8 -8 8 -19 15 -24 15 -14 0 19 -47 47 -65 23 -15 25 -14 31 2 4
10 11 21 16 24 5 4 2 19 -8 35 l-16 29 5 -32z"/>
<path d="M2900 3556 c0 -19 3 -37 8 -40 4 -2 6 13 4 35 -5 48 -12 51 -12 5z"/>
<path d="M4625 2590 c3 -5 12 -10 20 -10 8 0 17 5 20 10 4 6 -5 10 -20 10 -15
0 -24 -4 -20 -10z"/>
<path d="M4775 2590 c-4 -6 11 -10 37 -9 36 1 39 2 18 9 -36 11 -48 11 -55 0z"/>
<path d="M5462 1201 c-8 -4 -12 -17 -10 -27 3 -16 12 -19 58 -19 51 0 54 1 54
25 1 23 -4 25 -44 28 -25 1 -51 -2 -58 -7z"/>
<path d="M5051 1083 c-7 -21 -15 -44 -17 -50 -4 -9 7 -13 36 -13 29 0 40 4 36
13 -2 6 -10 29 -17 50 -7 20 -15 37 -19 37 -4 0 -12 -17 -19 -37z"/>
<path d="M4913 763 c-39 -5 -44 -21 -6 -19 14 0 28 -5 30 -11 3 -9 -8 -13 -34
-14 l-38 -2 45 -7 c53 -9 82 8 64 37 -12 20 -18 21 -61 16z"/>
<path d="M5430 734 c0 -21 4 -25 23 -22 14 2 23 11 25 26 3 18 -1 22 -22 22
-21 0 -26 -5 -26 -26z"/>
<path d="M5598 753 c6 -2 18 -2 25 0 6 3 1 5 -13 5 -14 0 -19 -2 -12 -5z"/>
<path d="M5608 713 c6 -2 18 -2 25 0 6 3 1 5 -13 5 -14 0 -19 -2 -12 -5z"/>
<path d="M4604 748 c-3 -4 6 -8 20 -8 14 0 26 4 26 9 0 11 -39 10 -46 -1z"/>
<path d="M4370 730 c0 -13 7 -20 20 -20 13 0 20 7 20 20 0 13 -7 20 -20 20
-13 0 -20 -7 -20 -20z"/>
<path d="M4563 715 c0 -14 3 -22 8 -19 5 3 9 11 9 19 0 8 -4 16 -9 19 -5 3 -8
-5 -8 -19z"/>
<path d="M6330 5688 c-52 -33 -300 -189 -550 -346 -250 -156 -461 -289 -468
-296 -9 -9 1 -10 45 -6 65 6 -4 -38 696 443 322 221 391 270 375 266 -2 0 -46
-28 -98 -61z"/>
<path d="M2782 4884 c14 -14 21 -15 30 -6 8 8 9 12 1 12 -6 0 -20 3 -30 6 -17
7 -17 6 -1 -12z"/>
<path d="M3518 4893 c6 -2 18 -2 25 0 6 3 1 5 -13 5 -14 0 -19 -2 -12 -5z"/>
<path d="M2003 4660 c0 -36 2 -50 4 -32 2 17 2 47 0 65 -2 17 -4 3 -4 -33z"/>
<path d="M2011 4534 c0 -11 3 -14 6 -6 3 7 2 16 -1 19 -3 4 -6 -2 -5 -13z"/>
<path d="M2030 4316 c0 -14 5 -26 10 -26 6 0 10 9 10 19 0 11 -4 23 -10 26 -6
4 -10 -5 -10 -19z"/>
<path d="M5450 3110 l0 -220 50 0 50 0 0 95 0 96 83 -3 82 -3 3 -93 3 -93 47
3 c26 2 46 6 45 11 -2 4 -3 102 -3 217 l0 210 -47 0 -48 0 0 -82 0 -83 -82 -3
-83 -3 0 86 0 85 -50 0 -50 0 0 -220z"/>
<path d="M5890 3280 l0 -40 95 0 c58 0 95 -4 95 -10 0 -6 -36 -79 -80 -164
-44 -84 -80 -159 -80 -165 0 -8 16 -11 47 -10 l46 3 89 182 c53 110 88 194 88
213 l0 31 -150 0 -150 0 0 -40z"/>
<path d="M1705 2787 c-159 -101 -355 -224 -435 -274 l-145 -91 -3 -156 c-1
-86 0 -156 3 -156 2 0 42 26 87 58 46 33 236 164 423 292 187 128 348 239 358
248 14 13 17 33 17 139 0 67 -3 123 -7 123 -5 0 -138 -83 -298 -183z"/>
<path d="M5463 2829 c-13 -5 -23 -13 -23 -20 0 -6 7 -9 15 -5 12 4 15 -5 15
-49 0 -40 4 -55 14 -55 10 0 14 16 14 65 0 36 -3 67 -7 69 -3 2 -16 0 -28 -5z"/>
<path d="M5543 2833 c-19 -7 -15 -24 5 -21 25 4 27 -37 3 -68 -29 -37 -26 -44
14 -44 19 0 35 5 35 10 0 6 -9 10 -21 10 l-20 0 20 26 c26 33 27 70 2 84 -11
5 -21 10 -23 9 -2 0 -9 -3 -15 -6z"/>
<path d="M5620 2823 c1 -42 27 -118 42 -121 13 -2 19 11 28 55 7 31 15 63 17
70 3 7 -2 13 -10 13 -11 0 -18 -14 -23 -45 -7 -52 -14 -52 -23 2 -6 37 -31 59
-31 26z"/>
<path d="M5800 2821 c0 -11 -3 -26 -6 -35 -4 -10 -1 -16 8 -16 20 0 37 -20 31
-36 -3 -8 -14 -14 -24 -14 -10 0 -19 -4 -19 -10 0 -14 43 -13 58 2 18 18 15
46 -8 65 -25 22 -25 29 1 36 27 7 15 27 -17 27 -17 0 -24 -6 -24 -19z"/>
<path d="M5897 2833 c-15 -14 -6 -56 15 -72 24 -20 17 -41 -13 -41 -10 0 -19
-4 -19 -10 0 -14 43 -13 58 2 19 19 14 56 -8 68 -11 6 -20 15 -20 20 0 6 9 10
20 10 11 0 20 7 20 15 0 15 -40 21 -53 8z"/>
<path d="M5970 2834 c0 -4 5 -36 11 -71 13 -72 34 -85 45 -27 7 39 24 29 24
-13 0 -25 25 -32 33 -10 13 34 19 127 8 127 -6 0 -11 -15 -11 -34 0 -49 -16
-53 -24 -6 -7 46 -23 52 -32 13 -14 -64 -18 -69 -24 -24 -3 25 -11 46 -17 49
-7 2 -13 0 -13 -4z"/>
<path d="M5450 2476 c0 -2 7 -7 16 -10 8 -3 12 -2 9 4 -6 10 -25 14 -25 6z"/>
<path d="M1815 2317 c-104 -78 -302 -225 -439 -327 l-248 -185 6 -60 c4 -33 9
-104 13 -157 l6 -97 29 21 c22 15 29 27 25 44 -4 24 8 34 15 12 3 -7 13 -5 32
7 20 13 26 24 22 39 -17 64 -18 70 -10 63 5 -5 14 -21 19 -37 l10 -29 359 287
358 287 4 138 c2 75 0 137 -4 137 -4 0 -92 -65 -197 -143z m-555 -613 c0 -8
-5 -12 -10 -9 -6 4 -8 11 -5 16 9 14 15 11 15 -7z"/>
<path d="M5779 2364 c-5 -15 -12 -30 -14 -35 -3 -4 0 -11 7 -15 7 -4 10 -4 6
1 -4 4 -4 13 1 19 9 13 21 56 15 56 -3 0 -9 -12 -15 -26z"/>
<path d="M5693 2373 c9 -2 25 -2 35 0 9 3 1 5 -18 5 -19 0 -27 -2 -17 -5z"/>
<path d="M2782 2290 c-7 -12 -23 -20 -38 -20 -14 0 -23 4 -19 9 3 5 1 12 -5
16 -6 4 -10 -5 -10 -19 0 -24 4 -26 43 -26 40 0 42 2 43 30 1 17 1 30 0 30 -1
0 -7 -9 -14 -20z"/>
<path d="M3051 2236 c3 -3 45 -7 94 -10 57 -4 81 -2 65 3 -25 9 -167 15 -159
7z"/>
<path d="M5710 2233 c0 -6 9 -18 20 -28 20 -18 21 -18 14 0 -5 13 -4 16 4 11
7 -4 12 -3 12 3 0 5 -4 13 -10 16 -5 3 -10 1 -10 -6 0 -8 -4 -8 -15 1 -8 7
-15 8 -15 3z"/>
<path d="M2898 2205 c-4 -4 -39 -7 -77 -6 -41 0 -71 -3 -71 -9 0 -6 30 -10 70
-10 64 0 90 -11 58 -23 -7 -3 1 -8 19 -12 21 -5 30 -12 26 -21 -3 -8 -9 -14
-15 -14 -5 0 -7 4 -4 8 3 4 -12 9 -32 9 -36 1 -36 1 -12 -13 18 -10 60 -13
150 -12 115 2 122 3 85 14 -22 7 -55 13 -72 13 -35 1 -45 16 -15 24 9 3 3 5
-15 6 -48 2 -52 21 -4 21 22 0 43 5 46 10 4 6 -9 10 -33 10 -22 0 -52 3 -68 6
-16 3 -32 2 -36 -1z m72 -80 c-12 -15 -30 -12 -30 6 0 5 10 9 21 9 18 0 19 -2
9 -15z"/>
<path d="M2685 2191 c-3 -5 8 -9 24 -9 17 1 28 5 25 10 -7 11 -41 10 -49 -1z"/>
<path d="M3118 2193 c7 -3 16 -2 19 1 4 3 -2 6 -13 5 -11 0 -14 -3 -6 -6z"/>
<path d="M2817 2149 c8 -8 16 -8 30 0 16 9 14 10 -11 11 -22 0 -27 -3 -19 -11z"/>
<path d="M3144 2122 c3 -5 31 -6 62 -4 38 3 54 1 50 -6 -7 -12 341 -8 353 4 3
3 -69 4 -162 2 -92 -1 -167 0 -167 5 0 4 -32 7 -71 7 -38 0 -68 -4 -65 -8z"/>
<path d="M4193 2123 c9 -2 25 -2 35 0 9 3 1 5 -18 5 -19 0 -27 -2 -17 -5z"/>
<path d="M4310 2120 c42 -7 220 -2 229 6 2 2 -58 3 -135 2 -95 -1 -125 -4 -94
-8z"/>
<path d="M2324 2104 c-18 -15 -18 -15 6 -10 14 3 35 6 48 6 12 0 22 5 22 10 0
16 -54 12 -76 -6z"/>
<path d="M2410 2108 c0 -5 55 -7 123 -7 135 2 124 7 -26 11 -53 2 -97 0 -97
-4z"/>
<path d="M2716 2112 c-2 -4 13 -8 35 -8 21 -1 36 2 33 7 -6 11 -61 12 -68 1z"/>
<path d="M3998 2113 c7 -3 16 -2 19 1 4 3 -2 6 -13 5 -11 0 -14 -3 -6 -6z"/>
<path d="M4108 2113 c6 -2 18 -2 25 0 6 3 1 5 -13 5 -14 0 -19 -2 -12 -5z"/>
<path d="M2808 2103 c7 -3 16 -2 19 1 4 3 -2 6 -13 5 -11 0 -14 -3 -6 -6z"/>
<path d="M3977 2084 c-2 -2 -1261 -13 -1515 -14 -142 0 -191 -3 -186 -11 5 -8
37 -10 103 -7 53 3 110 2 126 -2 17 -4 -39 -8 -131 -9 -160 -1 -161 -1 -196
-28 -36 -30 -797 -692 -913 -795 -39 -35 -83 -73 -100 -86 l-30 -23 -3 -366
c-3 -283 -2 -364 8 -358 15 9 70 -43 64 -60 -3 -7 0 -16 6 -20 12 -7 1424 4
1417 11 -2 2 -209 4 -461 4 -393 1 -461 3 -481 16 -27 18 -90 111 -133 199
-213 427 -39 950 383 1154 135 65 204 83 351 88 193 8 350 -30 489 -118 26
-16 48 -29 49 -27 2 2 84 94 184 205 100 111 182 203 182 205 0 2 -83 2 -185
0 -112 -2 -185 1 -185 7 0 6 259 10 683 11 375 1 727 4 782 5 55 2 243 4 418
5 214 0 317 4 317 11 0 7 -162 10 -521 7 -286 -2 -521 -4 -522 -4z m-1337 -35
c0 -5 -22 -9 -50 -9 -27 0 -50 4 -50 9 0 4 23 8 50 8 28 0 50 -4 50 -8z m170
1 c0 -6 -33 -10 -80 -10 -44 0 -80 3 -80 8 0 4 36 8 80 10 49 1 80 -2 80 -8z"/>
<path d="M5034 2081 c8 -12 547 -12 584 -1 15 5 -108 9 -281 9 -185 1 -306 -3
-303 -8z"/>
<path d="M2165 2060 c28 -12 95 -12 95 0 0 6 -25 10 -57 9 -42 0 -52 -3 -38
-9z"/>
<path d="M2237 1754 c-3 -3 -3 -12 -1 -19 5 -13 -24 -13 -61 1 -24 9 -19 4 19
-20 16 -10 26 -14 23 -10 -3 5 19 10 48 11 37 2 55 -1 58 -11 8 -20 -17 -61
-36 -60 -9 1 -17 -2 -17 -7 0 -5 7 -9 15 -9 9 0 18 -6 21 -13 3 -8 18 -14 35
-15 19 0 27 3 23 10 -5 7 -1 9 9 5 10 -3 17 -2 17 2 0 5 8 7 19 4 10 -2 38 5
62 16 23 12 49 21 56 21 7 0 13 5 13 11 0 8 5 7 15 -1 9 -7 13 -16 9 -19 -5
-6 -10 -7 -36 -10 -8 -1 -9 -4 -2 -11 15 -15 64 5 64 25 0 8 5 15 10 15 6 0
10 -11 10 -24 0 -17 7 -25 25 -28 14 -3 25 -1 25 3 0 5 7 6 15 3 8 -4 12 -10
9 -15 -3 -5 6 -9 20 -9 14 0 26 -5 26 -11 0 -6 6 -9 12 -7 7 3 13 13 13 24 0
11 6 18 13 16 8 -1 12 3 10 10 -9 26 -199 108 -251 108 -9 0 -22 -6 -29 -12
-15 -15 -50 -20 -42 -6 4 6 -7 8 -24 6 -36 -4 -44 14 -10 23 16 4 9 6 -21 7
-28 0 -39 -3 -30 -9 8 -5 10 -9 6 -9 -20 0 25 -31 52 -36 17 -4 31 -13 31 -21
0 -8 -5 -11 -12 -7 -7 4 -8 3 -4 -5 4 -6 11 -9 15 -7 4 3 13 0 21 -5 11 -8 7
-9 -15 -4 -16 3 -43 7 -59 9 -30 3 -76 36 -76 55 0 6 7 7 17 4 11 -4 14 -3 9
5 -4 7 -24 10 -47 8 -24 -3 -45 1 -53 9 -8 8 -16 12 -19 9z m322 -60 c10 -9
-35 -3 -49 6 -11 8 -7 9 15 4 17 -4 32 -8 34 -10z m-64 -4 c3 -5 -1 -10 -10
-10 -9 0 -13 5 -10 10 3 6 8 10 10 10 2 0 7 -4 10 -10z m100 -10 c-3 -5 -10
-10 -16 -10 -5 0 -9 5 -9 10 0 6 7 10 16 10 8 0 12 -4 9 -10z m-228 -24 c0 -8
-3 -15 -6 -14 -23 2 -41 -4 -36 -12 3 -5 1 -10 -4 -10 -13 0 -13 3 -5 24 3 8
12 12 20 9 8 -3 14 0 14 6 0 6 4 11 8 11 5 0 9 -6 9 -14z m340 -1 c0 -8 -4
-15 -9 -15 -10 0 -11 14 -1 23 9 10 10 9 10 -8z m-67 -16 c0 -6 -4 -7 -10 -4
-5 3 -10 11 -10 16 0 6 5 7 10 4 6 -3 10 -11 10 -16z m100 -25 c0 -2 -9 -4
-21 -4 -11 0 -18 4 -14 10 5 8 35 3 35 -6z"/>
<path d="M2465 1740 c3 -5 8 -10 11 -10 2 0 4 5 4 10 0 6 -5 10 -11 10 -5 0
-7 -4 -4 -10z"/>
<path d="M2138 1703 c7 -3 16 -2 19 1 4 3 -2 6 -13 5 -11 0 -14 -3 -6 -6z"/>
<path d="M2282 1703 c17 -4 17 -6 2 -21 -12 -11 -13 -17 -5 -20 14 -5 42 29
35 40 -3 5 -15 7 -27 7 -17 -1 -18 -2 -5 -6z"/>
<path d="M2245 1660 c-3 -5 -1 -10 4 -10 6 0 11 5 11 10 0 6 -2 10 -4 10 -3 0
-8 -4 -11 -10z"/>
<path d="M2481 1616 c-9 -10 -9 -16 -1 -21 6 -4 14 -4 17 -1 4 3 1 6 -6 6 -7
0 -9 5 -6 11 4 6 14 8 22 5 8 -3 11 -1 8 4 -9 14 -21 12 -34 -4z"/>
<path d="M2767 1608 c7 -8 10 -17 8 -20 -3 -3 6 -3 20 0 14 2 28 8 31 13 3 5
-2 6 -10 3 -8 -3 -25 0 -38 7 -20 11 -21 10 -11 -3z"/>
<path d="M2398 1593 c7 -3 16 -2 19 1 4 3 -2 6 -13 5 -11 0 -14 -3 -6 -6z"/>
<path d="M2770 1549 c0 -5 5 -7 10 -4 6 3 10 8 10 11 0 2 -4 4 -10 4 -5 0 -10
-5 -10 -11z"/>
<path d="M1812 1461 c-51 -25 -61 -41 -43 -70 8 -12 14 -13 36 -3 14 7 29 12
34 12 4 0 9 -73 10 -162 1 -90 6 -167 10 -171 5 -5 21 -7 37 -5 l29 3 3 208
c2 162 0 207 -10 208 -7 0 -22 2 -34 3 -11 1 -44 -9 -72 -23z"/>
<path d="M2072 1481 c-7 -4 -13 -46 -14 -106 l-3 -100 39 -5 c70 -9 97 -78 49
-125 -11 -12 -29 -16 -62 -13 -44 3 -46 2 -49 -26 -4 -36 10 -46 71 -46 61 0
103 24 128 72 44 85 11 175 -72 200 -28 8 -38 16 -34 26 3 7 5 22 5 33 0 16 7
19 56 19 l55 0 -3 37 -3 36 -76 3 c-42 1 -81 -1 -87 -5z"/>
<path d="M2369 1475 c-48 -26 -64 -77 -64 -200 0 -95 3 -116 23 -152 26 -49
47 -63 95 -63 78 0 117 71 118 213 1 104 -17 164 -59 197 -29 23 -76 25 -113
5z m72 -71 c10 -12 14 -49 14 -130 0 -96 -3 -116 -18 -131 -18 -17 -19 -17
-32 0 -28 39 -31 209 -4 260 12 21 23 22 40 1z"/>
<path d="M2600 1411 c-25 -24 -30 -38 -30 -76 0 -91 45 -144 98 -116 11 6 23
7 27 3 3 -4 5 -2 4 3 -2 6 2 31 10 56 14 49 3 117 -22 137 -32 25 -57 24 -87
-7z m67 -78 c5 -48 -16 -97 -33 -80 -14 14 -17 116 -4 132 19 23 32 4 37 -52z"/>
<path d="M2823 1428 c-17 -22 -183 -346 -183 -357 0 -6 7 -11 15 -11 9 0 48
67 105 180 50 99 90 183 91 187 1 13 -18 14 -28 1z"/>
<path d="M1650 1300 l0 -60 -61 0 c-52 0 -60 -2 -55 -16 3 -9 6 -18 6 -20 0
-2 25 -4 55 -4 l55 0 0 -60 c0 -53 2 -60 20 -60 18 0 20 7 20 60 l0 59 58 3
c43 2 57 7 57 18 0 11 -14 16 -57 18 l-58 3 0 59 c0 53 -2 60 -20 60 -18 0
-20 -7 -20 -60z"/>
<path d="M2833 1279 c-75 -27 -72 -196 4 -215 22 -6 32 -1 55 25 23 25 28 41
28 81 0 83 -36 128 -87 109z m38 -62 c9 -32 0 -105 -13 -113 -19 -12 -32 17
-30 71 1 31 4 60 8 66 10 16 27 5 35 -24z"/>
<path d="M1847 968 c33 -203 38 -223 57 -223 24 0 33 16 47 88 12 67 20 67 27
0 7 -72 18 -95 45 -91 20 3 24 13 38 99 9 53 19 110 22 128 6 28 4 31 -18 31
-21 0 -24 -5 -30 -57 -3 -32 -9 -69 -12 -83 -6 -23 -6 -23 -13 10 -4 19 -11
56 -15 83 -5 41 -9 47 -29 47 -22 0 -25 -7 -36 -81 -13 -82 -30 -92 -30 -18 0
70 -10 99 -36 99 -20 0 -22 -4 -17 -32z"/>
<path d="M2122 873 c3 -120 4 -128 23 -128 17 0 20 8 23 53 3 48 5 52 28 52
22 0 24 -4 24 -49 0 -52 8 -65 34 -55 13 5 16 26 16 130 l0 124 -25 0 c-23 0
-25 -3 -25 -50 0 -47 -2 -50 -25 -50 -23 0 -25 3 -25 50 0 47 -2 50 -25 50
l-26 0 3 -127z"/>
<path d="M2322 873 c3 -120 4 -128 23 -128 19 0 20 7 20 125 0 122 -1 125 -23
128 -23 3 -23 3 -20 -125z"/>
<path d="M2390 980 c0 -15 7 -20 25 -20 24 0 24 -1 27 -107 3 -100 4 -108 23
-108 19 0 20 8 23 108 2 97 4 107 21 107 19 0 35 23 24 34 -4 3 -37 6 -75 6
-61 0 -68 -2 -68 -20z"/>
<path d="M2563 875 c0 -69 4 -125 8 -126 5 0 30 -1 57 -1 40 -1 47 2 47 18 0
14 -7 19 -30 19 -27 1 -30 4 -33 38 -3 35 -2 37 27 37 24 0 31 4 31 20 0 16
-7 20 -30 20 -27 0 -30 3 -30 30 0 27 3 30 30 30 23 0 30 4 30 20 0 18 -7 20
-54 20 l-54 0 1 -125z"/>
<path d="M1820 678 c0 -7 13 -65 29 -128 26 -106 30 -115 53 -118 24 -3 26 2
47 85 12 48 24 107 27 131 5 40 4 42 -19 42 -23 0 -26 -5 -31 -52 -13 -106
-18 -128 -27 -122 -5 3 -9 18 -9 33 0 15 -5 53 -11 84 -10 50 -15 57 -35 57
-13 0 -24 -6 -24 -12z"/>
<path d="M2012 566 c2 -69 6 -128 10 -131 4 -4 14 -5 23 -2 12 5 15 28 15 132
l0 125 -26 0 -26 0 4 -124z"/>
<path d="M2122 674 c-16 -11 -22 -25 -22 -54 0 -33 6 -43 40 -70 45 -36 52
-67 17 -75 -13 -4 -30 -5 -38 -3 -8 2 -14 -5 -14 -17 0 -16 8 -21 37 -23 29
-3 43 2 63 22 38 38 33 70 -21 122 -37 37 -44 48 -34 59 7 8 23 15 35 15 22 0
40 22 28 34 -12 12 -69 6 -91 -10z"/>
<path d="M2258 598 c-4 -127 2 -163 27 -163 19 0 20 7 20 125 0 121 -1 125
-22 128 -21 3 -22 -1 -25 -90z"/>
<path d="M2372 666 c-26 -34 -36 -104 -22 -158 16 -57 36 -78 76 -78 50 0 76
43 78 130 1 55 -3 74 -20 97 -30 40 -84 44 -112 9z m77 -53 c14 -48 14 -72 0
-112 -14 -40 -39 -38 -51 4 -9 30 -4 117 7 135 13 21 35 8 44 -27z"/>
<path d="M2542 563 c3 -112 5 -128 21 -131 15 -3 17 6 18 80 0 69 2 79 11 58
6 -14 22 -51 36 -83 17 -40 30 -57 41 -55 13 3 16 23 19 131 3 125 2 127 -19
127 -21 0 -22 -3 -16 -80 7 -88 -2 -103 -22 -37 -22 74 -45 112 -69 115 l-23
3 3 -128z"/>
<path d="M2980 331 c0 -5 9 -7 20 -4 11 3 20 7 20 9 0 2 -9 4 -20 4 -11 0 -20
-4 -20 -9z"/>
<path d="M2648 313 c6 -2 18 -2 25 0 6 3 1 5 -13 5 -14 0 -19 -2 -12 -5z"/>
</g>
</svg>
