<?xml version="1.0" standalone="no"?>
<!DOCTYPE svg PUBLIC "-//W3C//DTD SVG 20010904//EN"
 "http://www.w3.org/TR/2001/REC-SVG-20010904/DTD/svg10.dtd">
<svg version="1.0" xmlns="http://www.w3.org/2000/svg"
 width="512.000000pt" height="512.000000pt" viewBox="0 0 512.000000 512.000000"
 preserveAspectRatio="xMidYMid meet">
<metadata>
Created by potrace 1.16, written by Peter Selinger 2001-2019
</metadata>
<g transform="translate(0.000000,512.000000) scale(0.100000,-0.100000)"
fill="#000000" stroke="none">
<path d="M110 4759 c-32 -13 -78 -56 -96 -91 -18 -35 -18 -131 0 -166 19 -37
55 -68 98 -87 31 -13 95 -15 401 -15 l364 0 20 -22 c15 -18 99 -344 347 -1358
180 -734 342 -1396 361 -1470 l35 -135 -33 -24 c-71 -54 -147 -143 -182 -214
-112 -228 -72 -483 104 -657 81 -81 155 -124 257 -150 301 -77 587 84 690 390
23 70 24 242 1 312 l-15 48 568 0 567 0 -14 -52 c-22 -80 -19 -239 6 -318 92
-291 390 -456 685 -380 109 28 170 63 256 150 87 86 122 147 150 256 76 297
-90 591 -390 690 -52 17 -123 19 -1161 22 -1083 3 -1107 3 -1124 22 -11 12
-37 99 -65 212 l-47 193 1337 5 1337 5 35 27 c19 15 42 42 51 60 9 19 117 440
241 936 232 928 243 980 212 1040 -21 41 -68 81 -107 92 -21 6 -688 10 -1835
10 l-1802 0 -47 193 c-26 105 -60 217 -74 247 -30 63 -107 145 -171 183 -91
53 -130 57 -550 56 -230 0 -395 -4 -410 -10z m4590 -1046 c0 -5 -79 -329 -177
-720 l-178 -713 -1270 0 -1271 0 -134 548 c-74 301 -153 625 -176 720 l-41
172 1623 0 c893 0 1624 -3 1624 -7z m-2717 -2604 c52 -14 112 -71 133 -125 31
-81 0 -176 -75 -229 -37 -26 -51 -30 -111 -30 -60 0 -74 4 -111 30 -133 94
-106 296 47 350 48 17 68 18 117 4z m2200 0 c127 -35 186 -196 111 -302 -83
-118 -249 -115 -327 6 -54 82 -43 175 27 243 60 57 117 73 189 53z"/>
</g>
</svg>
