<?xml version="1.0" standalone="no"?>
<!DOCTYPE svg PUBLIC "-//W3C//DTD SVG 20010904//EN"
 "http://www.w3.org/TR/2001/REC-SVG-20010904/DTD/svg10.dtd">
<svg version="1.0" xmlns="http://www.w3.org/2000/svg"
 width="5px" height="5px" viewBox="0 0 512.000000 512.000000"
 preserveAspectRatio="xMidYMid meet">

<g transform="translate(0.000000,512.000000) scale(0.100000,-0.100000)"
fill="#000000" stroke="none">
<path d="M245 5111 c-92 -24 -173 -90 -215 -176 -35 -71 -35 -198 -1 -270 19
-40 223 -249 1050 -1078 l1026 -1027 -1026 -1028 c-1115 -1116 -1066 -1062
-1077 -1188 -10 -126 53 -240 168 -303 61 -33 71 -36 150 -35 68 0 95 5 135
24 41 19 244 217 1078 1049 l1027 1026 1028 -1026 c833 -832 1036 -1030 1077
-1049 40 -19 67 -24 135 -24 78 -1 90 2 148 33 70 38 100 70 140 145 36 71 38
196 2 271 -19 41 -217 244 -1049 1077 l-1026 1028 1026 1028 c832 833 1030
1036 1049 1077 19 40 24 67 24 135 1 78 -2 90 -33 148 -38 70 -70 100 -145
140 -71 36 -196 38 -271 2 -41 -19 -244 -217 -1077 -1049 l-1028 -1026 -1027
1026 c-838 837 -1037 1030 -1077 1048 -53 24 -161 36 -211 22z"/>
</g>
</svg>
