<?xml version="1.0" standalone="no"?>
<!DOCTYPE svg PUBLIC "-//W3C//DTD SVG 20010904//EN"
 "http://www.w3.org/TR/2001/REC-SVG-20010904/DTD/svg10.dtd">
<svg version="1.0" xmlns="http://www.w3.org/2000/svg"
 width="225.000000pt" height="225.000000pt" viewBox="0 0 225.000000 225.000000"
 preserveAspectRatio="xMidYMid meet">

<g transform="translate(0.000000,225.000000) scale(0.100000,-0.100000)"
fill="#000000" stroke="none">
<path d="M1000 2243 c-325 -49 -579 -196 -771 -443 -184 -237 -266 -578 -209
-870 49 -250 139 -423 312 -598 399 -403 1047 -442 1493 -88 187 148 327 365
392 606 25 95 28 121 28 275 0 154 -3 180 -28 274 -98 367 -371 665 -718 784
-158 55 -370 80 -499 60z m330 -397 c94 -32 141 -57 208 -112 111 -90 187
-212 218 -351 29 -132 7 -326 -54 -465 -18 -41 -26 -48 -49 -48 -56 -1 -170
-31 -227 -61 -126 -66 -183 -164 -213 -368 l-17 -121 -72 0 -71 0 -7 71 c-30
320 -147 445 -455 481 -19 2 -29 16 -52 74 -31 80 -59 221 -59 302 0 209 116
418 296 532 156 99 379 125 554 66z"/>
</g>
</svg>
