<?xml version="1.0" standalone="no"?>
<!DOCTYPE svg PUBLIC "-//W3C//DTD SVG 20010904//EN"
 "http://www.w3.org/TR/2001/REC-SVG-20010904/DTD/svg10.dtd">
<svg version="1.0" xmlns="http://www.w3.org/2000/svg"
 width="512.000000pt" height="512.000000pt" viewBox="0 0 512.000000 512.000000"
 preserveAspectRatio="xMidYMid meet">
<metadata>
Created by potrace 1.16, written by Peter Selinger 2001-2019
</metadata>
<g transform="translate(0.000000,512.000000) scale(0.100000,-0.100000)"
fill="#000000" stroke="none">
<path d="M192 4459 c-32 -13 -71 -39 -101 -69 -160 -160 -103 -452 104 -529
l56 -21 2309 0 2309 0 56 21 c260 97 260 501 0 598 l-56 21 -2312 -1 c-2299 0
-2312 0 -2365 -20z"/>
<path d="M192 2859 c-32 -13 -71 -39 -101 -69 -160 -160 -103 -452 104 -529
l56 -21 2309 0 2309 0 56 21 c260 97 260 501 0 598 l-56 21 -2312 -1 c-2299 0
-2312 0 -2365 -20z"/>
<path d="M192 1259 c-32 -13 -71 -39 -101 -69 -160 -160 -103 -452 104 -529
l56 -21 2309 0 2309 0 56 21 c260 97 260 501 0 598 l-56 21 -2312 -1 c-2299 0
-2312 0 -2365 -20z"/>
</g>
</svg>
