<?xml version="1.0" standalone="no"?>
<!DOCTYPE svg PUBLIC "-//W3C//DTD SVG 20010904//EN"
 "http://www.w3.org/TR/2001/REC-SVG-20010904/DTD/svg10.dtd">
<svg version="1.0" xmlns="http://www.w3.org/2000/svg"
 width="512.000000pt" height="512.000000pt" viewBox="0 0 512.000000 512.000000"
 preserveAspectRatio="xMidYMid meet">
<metadata>
Created by potrace 1.16, written by Peter Selinger 2001-2019
</metadata>
<g transform="translate(0.000000,512.000000) scale(0.100000,-0.100000)"
fill="#000000" stroke="none">
<path d="M2321 5104 c-548 -92 -1006 -554 -1096 -1104 -19 -122 -19 -338 0
-460 90 -555 550 -1015 1105 -1105 122 -19 338 -19 460 0 555 90 1015 550
1105 1105 19 122 19 338 0 460 -90 555 -550 1015 -1105 1105 -117 19 -354 18
-469 -1z"/>
<path d="M1975 2104 c-575 -91 -1068 -419 -1377 -917 -180 -288 -288 -658
-288 -980 0 -123 10 -151 66 -188 28 -18 90 -19 2184 -19 2094 0 2156 1 2184
19 56 37 66 65 66 190 0 491 -229 1009 -607 1371 -277 266 -585 427 -979 512
-93 20 -131 21 -629 24 -421 2 -549 0 -620 -12z"/>
</g>
</svg>
