<?xml version="1.0" standalone="no"?>
<!DOCTYPE svg PUBLIC "-//W3C//DTD SVG 20010904//EN"
 "http://www.w3.org/TR/2001/REC-SVG-20010904/DTD/svg10.dtd">
<svg version="1.0" xmlns="http://www.w3.org/2000/svg"
 width="512.000000pt" height="512.000000pt" viewBox="0 0 512.000000 512.000000"
 preserveAspectRatio="xMidYMid meet">
<metadata>
Created by potrace 1.16, written by Peter Selinger 2001-2019
</metadata>
<g transform="translate(0.000000,512.000000) scale(0.100000,-0.100000)"
fill="#000000" stroke="none">
<path d="M1838 5115 c-3 -3 -50 -15 -104 -26 -277 -55 -615 -212 -849 -393
-74 -57 -99 -80 -200 -181 -131 -131 -191 -203 -280 -340 -50 -77 -148 -268
-165 -320 -7 -22 -16 -44 -20 -50 -22 -32 -74 -215 -111 -390 -21 -98 -24
-137 -24 -355 0 -198 4 -264 19 -345 45 -240 99 -401 207 -612 53 -104 144
-250 186 -300 10 -12 33 -41 52 -65 48 -61 260 -268 328 -321 79 -60 209 -147
221 -147 6 0 12 -4 14 -9 9 -24 313 -158 453 -199 341 -99 710 -109 1079 -28
189 42 486 173 653 287 l41 29 99 -103 c126 -131 299 -310 538 -561 105 -110
268 -279 363 -377 96 -97 181 -187 189 -199 9 -12 42 -42 75 -66 l60 -44 103
0 c79 0 107 4 119 15 8 8 18 15 23 15 18 0 93 87 112 130 29 64 28 160 -3 225
-23 51 -90 124 -451 495 -99 102 -266 275 -370 384 -105 110 -245 256 -312
325 -68 69 -123 131 -123 138 0 7 19 37 43 67 23 29 48 61 55 72 86 129 114
178 168 289 86 178 147 365 173 530 6 39 15 100 21 136 27 174 5 528 -45 729
-52 208 -167 469 -289 655 -184 280 -496 555 -796 702 -212 103 -324 143 -536
188 -112 23 -137 25 -415 25 -163 0 -298 -2 -301 -5z m557 -560 c108 -18 216
-44 229 -54 6 -4 25 -11 41 -15 51 -12 246 -111 345 -176 120 -78 311 -269
397 -395 60 -89 144 -245 158 -295 4 -14 11 -29 15 -35 11 -13 38 -112 56
-200 8 -38 19 -86 24 -105 25 -96 19 -366 -14 -530 -29 -150 -96 -323 -178
-459 -21 -34 -38 -65 -38 -67 0 -3 -4 -10 -10 -17 -5 -7 -36 -46 -68 -87 -130
-166 -312 -320 -487 -414 -53 -28 -165 -76 -178 -76 -7 0 -17 -4 -22 -9 -19
-18 -147 -48 -336 -80 -82 -14 -274 -14 -331 -1 -24 5 -81 16 -128 24 -104 17
-191 41 -247 67 -24 10 -46 19 -51 19 -14 0 -177 86 -239 126 -147 96 -297
236 -398 374 -55 75 -105 154 -105 168 0 5 -3 12 -7 14 -16 6 -97 187 -108
239 -4 19 -11 39 -15 44 -7 9 -23 75 -50 215 -11 58 -11 379 0 445 19 112 42
211 51 220 5 5 9 15 9 23 0 22 62 173 97 235 18 33 33 61 33 63 0 4 45 75 62
99 134 183 258 304 413 404 44 28 85 54 90 58 17 14 138 69 200 93 33 12 69
27 80 31 30 13 141 40 225 54 101 17 384 17 485 0z"/>
</g>
</svg>
