<?xml version="1.0" standalone="no"?>
<!DOCTYPE svg PUBLIC "-//W3C//DTD SVG 20010904//EN"
 "http://www.w3.org/TR/2001/REC-SVG-20010904/DTD/svg10.dtd">
<svg version="1.0" xmlns="http://www.w3.org/2000/svg"
 width="128.000000pt" height="128.000000pt" viewBox="0 0 128.000000 128.000000"
 preserveAspectRatio="xMidYMid meet">

<g transform="translate(0.000000,128.000000) scale(0.100000,-0.100000)"
fill="#000000" stroke="none">
<path d="M500 1265 c-175 -38 -349 -173 -429 -335 -94 -192 -94 -384 0 -578
101 -210 331 -352 569 -352 237 0 461 139 568 350 95 190 96 389 0 580 -129
257 -422 396 -708 335z m184 -425 c25 -9 26 -12 26 -104 0 -62 4 -97 12 -102
16 -10 61 46 102 126 l32 65 87 3 c69 2 88 0 93 -12 7 -18 -16 -63 -77 -147
-27 -37 -49 -72 -49 -78 0 -6 29 -43 65 -82 65 -71 79 -102 49 -113 -9 -3 -49
-6 -91 -6 l-74 0 -58 54 c-31 31 -61 52 -68 48 -6 -4 -14 -23 -18 -42 -10 -49
-22 -60 -64 -60 -100 0 -194 53 -265 150 -56 76 -149 257 -142 276 4 10 24 14
73 14 37 0 73 -4 79 -8 6 -4 28 -39 48 -78 40 -77 78 -120 95 -109 6 3 11 38
11 81 0 63 -3 76 -20 86 -25 16 -26 35 -2 41 33 9 131 7 156 -3z"/>
</g>
</svg>
