<?xml version="1.0" standalone="no"?>
<!DOCTYPE svg PUBLIC "-//W3C//DTD SVG 20010904//EN"
 "http://www.w3.org/TR/2001/REC-SVG-20010904/DTD/svg10.dtd">
<svg version="1.0" xmlns="http://www.w3.org/2000/svg"
 width="128.000000pt" height="128.000000pt" viewBox="0 0 128.000000 128.000000"
 preserveAspectRatio="xMidYMid meet">

<g transform="translate(0.000000,128.000000) scale(0.100000,-0.100000)"
fill="#000000" stroke="none">
<path d="M500 1264 c-234 -50 -436 -254 -485 -489 -95 -454 306 -855 760 -760
181 38 349 168 433 335 95 191 95 389 0 580 -129 257 -422 396 -708 334z m312
-266 c113 -52 195 -159 218 -286 29 -161 -61 -332 -214 -407 -82 -40 -189 -46
-284 -16 l-68 22 -97 -24 c-53 -14 -97 -22 -97 -18 0 4 11 46 25 93 l25 87
-26 78 c-21 63 -25 90 -21 143 12 159 102 280 255 341 70 29 207 22 284 -13z"/>
<path d="M577 960 c-90 -23 -167 -87 -209 -175 -38 -82 -40 -185 -3 -264 26
-55 26 -60 -1 -153 -4 -15 0 -15 52 -2 54 15 59 14 113 -8 212 -87 441 68 441
298 0 114 -73 230 -176 279 -61 29 -157 40 -217 25z m-7 -177 c20 -46 21 -50
5 -79 -16 -30 -16 -33 0 -58 23 -35 94 -86 120 -86 11 0 26 9 33 20 15 25 33
25 83 -1 36 -18 40 -23 34 -47 -24 -100 -190 -71 -303 53 -79 86 -98 145 -67
205 29 57 68 54 95 -7z"/>
</g>
</svg>
