<?xml version="1.0" standalone="no"?>
<!DOCTYPE svg PUBLIC "-//W3C//DTD SVG 20010904//EN"
 "http://www.w3.org/TR/2001/REC-SVG-20010904/DTD/svg10.dtd">
<svg version="1.0" xmlns="http://www.w3.org/2000/svg"
 width="100.000000pt" height="100.000000pt" viewBox="0 0 100.000000 100.000000"
 preserveAspectRatio="xMidYMid meet">

<g transform="translate(0.000000,100.000000) scale(0.100000,-0.100000)"
fill="#000000" stroke="none">
<path d="M420 926 c-171 -38 -302 -179 -331 -355 -44 -273 209 -526 482 -482
186 30 327 171 360 359 38 213 -118 434 -339 481 -65 14 -101 13 -172 -3z
m245 -86 c64 -31 144 -111 175 -175 22 -43 25 -64 25 -155 0 -100 -1 -108 -34
-168 -39 -72 -88 -120 -163 -159 -48 -25 -63 -28 -153 -28 -87 0 -107 3 -156
26 -76 36 -129 86 -170 161 -33 60 -34 68 -34 168 0 95 3 110 27 156 50 95
116 155 208 188 68 25 210 18 275 -14z"/>
<path d="M302 698 c-7 -7 -12 -17 -12 -23 0 -6 43 -53 95 -105 l94 -94 3 -121
3 -120 25 0 25 0 3 120 3 120 96 97 c96 96 107 119 67 135 -11 4 -42 -21 -105
-83 l-89 -89 -88 88 c-48 48 -92 87 -98 87 -5 0 -15 -5 -22 -12z"/>
</g>
</svg>
